<svg xmlns="http://www.w3.org/2000/svg" width="22" height="24" viewBox="0 0 22 24">
    <path fill="#FFF" fill-rule="nonzero" d="M10.839.28C9.989.28 9.29.978 9.29 1.83c0 .85.698 1.548 1.549 1.548.85 0 1.548-.698 1.548-1.548 0-.85-.698-1.549-1.548-1.549zM8.634 2.654l-.671.388.387.67.671-.386-.387-.672zm4.41 0l-.388.672.672.387.387-.671-.672-.388zm-5.751.775l-.67.387.387.671.67-.387-.387-.671zm7.092 0l-.388.671.67.387.387-.671-.67-.387zm-8.433.774l-.67.387.387.671.67-.387-.387-.671zm9.774 0l-.387.671.67.387.387-.671-.67-.387zM4.61 4.977l-.67.387.388.671.67-.387-.388-.671zm12.457 0l-.387.671.67.387.387-.67-.67-.388zm-15.051.34c-.497.036-.968.31-1.234.77-.426.736-.17 1.69.567 2.115.736.426 1.688.17 2.114-.567a1.554 1.554 0 0 0-.566-2.115 1.539 1.539 0 0 0-.881-.203zm17.646 0a1.539 1.539 0 0 0-.882.203 1.554 1.554 0 0 0-.565 2.115 1.553 1.553 0 0 0 2.114.567 1.555 1.555 0 0 0 .567-2.115 1.552 1.552 0 0 0-1.234-.77zm-8.823.752a2.904 2.904 0 0 0-2.9 2.9v.967c0 .938.456 1.765 1.15 2.296-1.815.774-3.084 2.712-3.084 4.954 0 .267.217.483.484.483h8.7a.483.483 0 0 0 .483-.483c0-2.242-1.268-4.18-3.083-4.954a2.887 2.887 0 0 0 1.15-2.296v-.967c0-1.598-1.302-2.9-2.9-2.9zM1.736 9.184v.774h.774v-.774h-.774zm17.431 0v.774h.775v-.774h-.775zM1.736 10.732v.774h.774v-.774h-.774zm17.431 0v.774h.775v-.774h-.775zM1.736 12.28v.775h.774v-.775h-.774zm17.431 0v.775h.775v-.775h-.775zM1.736 13.83v.774h.774v-.774h-.774zm17.431 0v.774h.775v-.774h-.775zM2.23 15.382a1.534 1.534 0 0 0-.88.202A1.555 1.555 0 0 0 .782 17.7a1.555 1.555 0 0 0 2.115.567 1.555 1.555 0 0 0 .567-2.116 1.554 1.554 0 0 0-1.235-.77zm17.22 0c-.497.035-.97.309-1.236.77-.425.736-.17 1.69.567 2.115.737.425 1.69.17 2.116-.567.425-.737.17-1.69-.567-2.116a1.534 1.534 0 0 0-.88-.202zm-15.121 2.37l-.387.67.67.388.386-.672-.67-.387zm13.022 0l-.67.386.387.672.67-.387-.387-.672zm-11.681.773l-.387.672.67.387.387-.672-.67-.387zm10.34 0l-.67.387.387.672.67-.387-.387-.672zM7.01 19.3l-.387.67.67.388.387-.671-.67-.387zm7.657 0l-.67.387.388.671.67-.387-.388-.671zm-6.317.774l-.387.671.671.387.387-.671-.671-.387zm4.978 0l-.672.387.387.671.672-.387-.387-.671zm-2.49.335c-.85 0-1.548.698-1.548 1.549 0 .85.698 1.548 1.549 1.548.85 0 1.548-.698 1.548-1.548 0-.85-.698-1.549-1.548-1.549z" opacity=".5"/>
</svg>
