<svg xmlns="http://www.w3.org/2000/svg" width="16" height="18" viewBox="0 0 16 18">
    <g fill="none" fill-rule="evenodd" stroke="#DE3C3C">
        <path d="M2.278 4.808V15.23a1.5 1.5 0 0 0 1.5 1.5h8.444a1.5 1.5 0 0 0 1.5-1.5V4.808H2.278zM6.727 1.654l.079.57H1.723a1.223 1.223 0 0 0 0 2.445h12.554a1.223 1.223 0 0 0 0-2.446H9.194l.079-.569a.509.509 0 0 0 .005-.07V1a.5.5 0 0 0-.5-.5H7.222a.5.5 0 0 0-.5.5v.585c0 .023.002.047.005.07z"/>
        <rect width="1" height="4.169" x="5.833" y="8.254" fill="#D8D8D8" rx=".5"/>
        <rect width="1" height="4.169" x="10.278" y="8.254" fill="#D8D8D8" rx=".5"/>
    </g>
</svg>
