<svg xmlns="http://www.w3.org/2000/svg" width="20" height="20" viewBox="0 0 20 20">
    <g fill="#FFF" fill-rule="evenodd">
        <path fill-rule="nonzero" d="M1.865 14.882l4.657.906c-.14.387-.218.793-.233 1.204l-4.657-.902a.613.613 0 1 1 .233-1.204v-.004zM10.473 13.135c1.408-7.037 2.04-9.866 2.694-12.625a.612.612 0 0 1 .596-.473h4.898a.612.612 0 0 1 0 1.224h-4.413c-.6 2.604-1.249 5.49-2.575 12.115a3.988 3.988 0 0 0-1.2-.241zM8.428 15.078a2.816 2.816 0 1 1 0 0zm1.874 3.636a1.567 1.567 0 1 0-1.572-1.571 1.571 1.571 0 0 0 1.567 1.567l.005.004zM2.64 4.114a.612.612 0 0 1 .719-.465l6.983 1.429a.612.612 0 0 1 .474.734L9.17 13.29a4.029 4.029 0 0 0-2.163 1.567L1.17 13.665a.612.612 0 0 1-.474-.734L2.64 4.114z"/>
        <path d="M19.283 6.48a.444.444 0 1 1 0 .889h-4.889a.444.444 0 0 1 0-.89h4.89zM16.99 8.807a.444.444 0 1 1 0 .889h-3.11a.444.444 0 1 1 0-.89h3.11zM15.128 11.245a.444.444 0 0 1 0 .889H13.35a.444.444 0 1 1 0-.89h1.778z"/>
    </g>
</svg>
