<svg xmlns="http://www.w3.org/2000/svg" width="24" height="24" viewBox="0 0 24 24">
    <g fill="#FFF" fill-rule="evenodd" opacity=".5">
        <path fill-rule="nonzero" d="M21.762 17.858l-5.588 1.087c.167.465.26.952.279 1.445l5.588-1.082a.736.736 0 0 0-.279-1.445v-.005zM11.432 15.762C9.742 7.318 8.983 3.923 8.2.612a.735.735 0 0 0-.715-.568H1.607a.735.735 0 1 0 0 1.47h5.295C7.622 4.637 8.4 8.1 9.992 16.05c.463-.17.948-.268 1.44-.29zM13.886 18.093a3.38 3.38 0 1 0 0 0zm-2.248 4.364a1.88 1.88 0 1 1 1.886-1.886 1.886 1.886 0 0 1-1.88 1.881l-.006.005zM20.832 4.937a.735.735 0 0 0-.862-.558l-8.38 1.714a.735.735 0 0 0-.569.882l1.974 8.973a4.834 4.834 0 0 1 2.596 1.88l7.004-1.43a.735.735 0 0 0 .568-.881l-2.331-10.58z"/>
        <path d="M.86 7.776a.533.533 0 1 0 0 1.066h5.867a.533.533 0 0 0 0-1.066H.86zM3.611 10.568a.533.533 0 1 0 0 1.067h3.733a.533.533 0 1 0 0-1.067H3.611zM5.847 13.494a.533.533 0 0 0 0 1.067H7.98a.533.533 0 1 0 0-1.067H5.847z"/>
    </g>
</svg>
