<svg xmlns="http://www.w3.org/2000/svg" width="17" height="16" viewBox="0 0 17 16">
    <g fill="none" fill-rule="evenodd" stroke="#566177" transform="translate(-1 -1)">
        <path d="M2.504 15.756l3.608-.792a1.83 1.83 0 0 0 .27-.07.354.354 0 0 0 .085-.047c.04-.03.08-.065.204-.19l9.908-9.907c.234-.234.291-.32.325-.431a.409.409 0 0 0 0-.245c-.034-.111-.091-.196-.325-.43L14.856 1.92c-.234-.234-.319-.291-.43-.325a.409.409 0 0 0-.245 0c-.112.034-.197.091-.43.325l-9.94 9.94c-.118.118-.15.153-.178.19a.347.347 0 0 0-.045.074 2.032 2.032 0 0 0-.081.246l-1.003 3.385z"/>
        <rect width="11" height="1" x="4.5" y="8.5" rx=".5" transform="rotate(-45 10 8.5)"/>
    </g>
</svg>
