<svg xmlns="http://www.w3.org/2000/svg" width="24" height="21" viewBox="0 0 24 21">
    <path fill="#FFF" fill-rule="nonzero" d="M5.86.092a.558.558 0 0 0-.558.558v1.117h-2.28a2.79 2.79 0 0 0-2.79 2.79v10.42a2.79 2.79 0 0 0 2.79 2.791 2.79 2.79 0 0 0 2.791 2.791h15.165a2.79 2.79 0 0 0 2.79-2.79V7.347a2.79 2.79 0 0 0-2.79-2.79 2.79 2.79 0 0 0-2.791-2.791h-2.28V.65a.558.558 0 1 0-1.116 0v1.117H6.419V.65A.558.558 0 0 0 5.86.092zm14.56 17.676c.308 0 .558-.25.558-.558V5.673c.924 0 1.674.75 1.674 1.675v10.42c0 .925-.75 1.675-1.674 1.675H5.813c-.925 0-1.674-.75-1.674-1.675h16.28zM4.605 7.535c0-.308.25-.558.558-.558h3.349a.558.558 0 0 1 0 1.116h-3.35a.558.558 0 0 1-.557-.558zm0 3.07c0-.309.25-.558.558-.558h10.884a.558.558 0 1 1 0 1.116H5.163a.558.558 0 0 1-.558-.558zm11.442 2.511a.558.558 0 1 1 0 1.117H5.163a.558.558 0 1 1 0-1.117h10.884z" opacity=".5"/>
</svg>
