<svg xmlns="http://www.w3.org/2000/svg" width="24" height="20" viewBox="0 0 24 20">
    <g fill="#FFF" fill-rule="nonzero" opacity=".5">
        <path d="M.878 15.951h22.244c.498 0 .878-.38.878-.878a.862.862 0 0 0-.878-.878h-.263c-.322-4.449-3.747-8.107-8.254-9.16.38-.498.615-1.142.615-1.815a3.073 3.073 0 1 0-6.147 0c0 .643.205 1.258.556 1.756-4.624.965-8.166 4.683-8.488 9.22H.878a.862.862 0 0 0-.878.877c0 .498.38.878.878.878zM12.146 1.902c.732 0 1.317.586 1.317 1.318 0 .731-.585 1.317-1.317 1.317A1.312 1.312 0 0 1 10.83 3.22c0-.732.586-1.318 1.317-1.318zM23.122 18H.878a.862.862 0 0 0-.878.878c0 .498.38.878.878.878h22.244c.498 0 .878-.38.878-.878a.862.862 0 0 0-.878-.878z"/>
    </g>
</svg>
