<svg xmlns="http://www.w3.org/2000/svg" width="18" height="17" viewBox="0 0 18 17">
    <g fill="#FFF" fill-rule="nonzero">
        <path d="M2.674 13.27a1.4 1.4 0 0 1-1.399-1.399V4.346h13.453v1.69c.425.145.827.339 1.199.576V2.7A2.6 2.6 0 0 0 13.33.103H2.674A2.6 2.6 0 0 0 .076 2.7v9.171a2.6 2.6 0 0 0 2.598 2.598H8.13a5.637 5.637 0 0 1-.586-1.2h-4.87v.001zM1.275 2.7a1.4 1.4 0 0 1 1.399-1.398H13.33A1.4 1.4 0 0 1 14.729 2.7v.447H1.275V2.7z"/>
        <path d="M3.273 6.144h1.249v1.249H3.273zM10.753 6.144H5.77v1.249h3.102a5.676 5.676 0 0 1 1.88-1.25zM3.273 8.542h1.249v1.249H3.273zM5.77 9.79h1.683c.13-.44.314-.859.541-1.248H5.77V9.79zM12.889 6.424c-2.74 0-4.97 2.23-4.97 4.97 0 2.74 2.23 4.97 4.97 4.97 2.74 0 4.97-2.23 4.97-4.97 0-2.74-2.23-4.97-4.97-4.97zm0 8.741a3.776 3.776 0 0 1-3.772-3.771 3.775 3.775 0 0 1 3.772-3.772 3.776 3.776 0 0 1 3.771 3.772 3.776 3.776 0 0 1-3.771 3.771z"/>
        <path d="M13.513 8.941h-1.25V12.04h1.25v-.02h1.848v-1.25h-1.848z"/>
    </g>
</svg>
