<svg xmlns="http://www.w3.org/2000/svg" width="21" height="24" viewBox="0 0 21 24">
    <g fill="#FFF" fill-rule="evenodd" opacity=".5">
        <path fill-rule="nonzero" d="M13.304 1.617L10.644.104a.474.474 0 0 0-.522 0L.26 5.791c-.052 0-.052 0-.104.052-.053.053-.105.105-.105.157 0 .052-.052.052-.052.104v11.479c0 .156.104.365.26.417l9.862 5.74h.104c.052 0 .104.051.157.051.052 0 .104 0 .156-.052h.104l9.861-5.896c.157-.104.261-.26.261-.417V5.791l-7.46-4.174zm-2.452 20.766V12.209l8.818-5.113v9.965l-8.818 5.322zm-3.86-8.296c-.105.156-.262.26-.418.26-.104 0-.157 0-.261-.051L4.017 12.99a.528.528 0 0 1-.208-.678.528.528 0 0 1 .678-.209l2.296 1.305c.26.156.365.47.208.678z"/>
        <path d="M13.5 10.125v5.625l1.777-2.446 1.973.946V7.875z"/>
    </g>
</svg>
