<svg xmlns="http://www.w3.org/2000/svg" width="19" height="22" viewBox="0 0 19 22">
    <path fill="#A4A4A4" fill-rule="evenodd" d="M2.465 0H15.7a2.454 2.454 0 0 1 2.465 2.465v17.1c0 1.34-1.095 2.435-2.465 2.435H2.465C1.095 22 0 20.905 0 19.566V2.465A2.454 2.454 0 0 1 2.465 0zM8.49 15.519h5.142c.852 0 .852 1.278 0 1.278H8.49c-.852 0-.852-1.278 0-1.278zm0-5.143h5.142c.852 0 .852 1.278 0 1.278H8.49c-.852 0-.852-1.278 0-1.278zm0-5.173h5.142c.852 0 .852 1.309 0 1.309H8.49c-.852 0-.852-1.309 0-1.309zM5.203 14.82c1.765 0 1.765 2.678 0 2.678-1.734 0-1.734-2.678 0-2.678zm0-2.465c1.765 0 1.765-2.678 0-2.678-1.734 0-1.734 2.678 0 2.678zm0-7.82c1.765 0 1.765 2.647 0 2.647-1.734 0-1.734-2.647 0-2.647zM2.465 1.339H15.7c.609 0 1.126.517 1.126 1.126v17.1c0 .61-.517 1.096-1.126 1.096H2.465c-.609 0-1.126-.487-1.126-1.095V2.465c0-.609.517-1.126 1.126-1.126z"/>
</svg>
