<svg xmlns="http://www.w3.org/2000/svg" width="16" height="24" viewBox="0 0 16 24">
    <path fill="#FFF" fill-rule="evenodd" d="M8 0a7.985 7.985 0 0 0-5.143 1.87A8.005 8.005 0 0 0 1.071 12l5.846 8.376a1.253 1.253 0 0 0 2.166 0l5.846-8.376A8.005 8.005 0 0 0 13.143 1.87 7.985 7.985 0 0 0 8 0zM4.5 6.5a.499.499 0 1 0 0 1h7a.499.499 0 1 0 0-1h-7zm0 2a.499.499 0 1 0 0 1h7a.499.499 0 1 0 0-1h-7zm-.75 9.803a.5.5 0 0 0-.208.046c-.903.421-1.6.984-1.896 1.664-.3.692-.13 1.505.43 2.124C3.196 23.374 5.477 24 8 24c2.523 0 4.803-.626 5.923-1.863.56-.62.731-1.432.43-2.124-.293-.676-.997-1.242-1.891-1.662a.5.5 0 0 0-.419.906c.79.362 1.239.8 1.393 1.154.153.354.116.646-.254 1.055C12.442 22.284 10.339 23 8 23c-2.339 0-4.441-.716-5.182-1.534-.37-.41-.408-.701-.255-1.055.154-.353.605-.791 1.395-1.153a.501.501 0 0 0-.208-.955z" opacity=".5"/>
</svg>
