<svg xmlns="http://www.w3.org/2000/svg" width="11" height="17" viewBox="0 0 11 17">
    <path fill="#566177" fill-rule="evenodd" d="M5.5 0a5.49 5.49 0 0 0-3.535 1.286A5.504 5.504 0 0 0 .737 8.25l4.019 5.758a.861.861 0 0 0 1.489 0l4.019-5.758a5.504 5.504 0 0 0-1.228-6.964A5.49 5.49 0 0 0 5.5 0zM3.094 4.469a.343.343 0 1 0 0 .687h4.813a.343.343 0 1 0 0-.687H3.094zm0 1.375a.343.343 0 1 0 0 .688h4.813a.343.343 0 1 0 0-.688H3.094zm-.516 6.74c-.049 0-.098.01-.143.031-.62.29-1.1.677-1.303 1.144-.207.476-.09 1.035.296 1.46.77.852 2.338 1.282 4.072 1.282 1.735 0 3.303-.43 4.072-1.281.385-.426.503-.985.297-1.46-.202-.465-.687-.854-1.301-1.143a.344.344 0 0 0-.288.623c.543.248.852.55.957.793.106.243.08.444-.174.725-.51.563-1.955 1.055-3.563 1.055s-3.053-.492-3.562-1.055c-.255-.281-.281-.482-.175-.725.105-.243.415-.544.958-.793a.345.345 0 0 0-.143-.656z"/>
</svg>
