<svg xmlns="http://www.w3.org/2000/svg" width="24" height="24" viewBox="0 0 24 24">
    <path fill="#FFF" fill-rule="nonzero" d="M23.048 13.607c.08-.55.124-1.116.124-1.69 0-.574-.044-1.14-.124-1.69l-2.617-.749a9.062 9.062 0 0 0-.866-2.09l1.323-2.38a11.64 11.64 0 0 0-2.391-2.39L16.116 3.94a9.143 9.143 0 0 0-2.09-.866L13.278.456A11.586 11.586 0 0 0 9.896.455l-.749 2.617a9.062 9.062 0 0 0-2.09.867l-2.38-1.323a11.64 11.64 0 0 0-2.39 2.39l1.322 2.381a9.143 9.143 0 0 0-.866 2.09l-2.618.749a11.586 11.586 0 0 0 0 3.381l2.616.749c.203.738.496 1.44.867 2.09l-1.323 2.38a11.64 11.64 0 0 0 2.39 2.391l2.381-1.323c.652.37 1.352.664 2.09.867l.749 2.617a11.586 11.586 0 0 0 3.381.001l.749-2.617a9.062 9.062 0 0 0 2.09-.866l2.38 1.322a11.64 11.64 0 0 0 2.391-2.39l-1.323-2.381c.37-.652.664-1.351.867-2.09l2.618-.75zm-11.462 3.276a4.965 4.965 0 1 1 0-9.93 4.965 4.965 0 0 1 0 9.93z" opacity=".5"/>
</svg>
