<svg xmlns="http://www.w3.org/2000/svg" width="22" height="22" viewBox="0 0 22 22">
    <g fill="#A4A4A4" fill-rule="nonzero">
        <path d="M1.467 21.267H.733V1.1a.366.366 0 1 1 .734 0v20.167zM0 22h2.2V1.1a1.1 1.1 0 1 0-2.2 0V22zM21.267 21.267h-.734V1.1a.366.366 0 1 1 .734 0v20.167zM19.8 22H22V1.1a1.1 1.1 0 1 0-2.2 0V22zM6.033 5.133V2.3c0-.055.044-.099.1-.099h2.735c.055 0 .099.044.099.099v2.834H6.033zm-.733.734h4.4V2.299a.832.832 0 0 0-.832-.832H6.132a.832.832 0 0 0-.832.832v3.568zM12.533 5.133V2.3c0-.055.044-.099.1-.099h2.735c.055 0 .099.044.099.099v2.834h-2.934zm-.733.734h4.4V2.299a.832.832 0 0 0-.832-.832h-2.736a.832.832 0 0 0-.832.832v3.568z"/>
        <path d="M1.833 5.867h18.334v-.734H1.833zM6.033 12.1V9.266c0-.055.044-.1.1-.1h2.735c.055 0 .099.045.099.1V12.1H6.033zm-.733.733h4.4V9.266a.832.832 0 0 0-.832-.833H6.132a.832.832 0 0 0-.832.833v3.567zM12.533 12.1V9.266c0-.055.044-.1.1-.1h2.735c.055 0 .099.045.099.1V12.1h-2.934zm-.733.733h4.4V9.266a.832.832 0 0 0-.832-.833h-2.736a.832.832 0 0 0-.832.833v3.567z"/>
        <path d="M1.833 12.833h18.334V12.1H1.833zM6.033 19.067v-2.835c0-.055.044-.099.1-.099h2.735c.055 0 .099.044.099.1v2.834H6.033zM5.3 19.8h4.4v-3.568a.832.832 0 0 0-.832-.832H6.132a.832.832 0 0 0-.832.832V19.8zM12.533 19.067v-2.835c0-.055.044-.099.1-.099h2.735c.055 0 .099.044.099.1v2.834h-2.934zm-.733.733h4.4v-3.568a.832.832 0 0 0-.832-.832h-2.736a.832.832 0 0 0-.832.832V19.8z"/>
        <path d="M1.833 19.8h18.334v-.733H1.833z"/>
    </g>
</svg>
