<svg xmlns="http://www.w3.org/2000/svg" width="20" height="25" viewBox="0 0 20 25">
    <g fill="#FFF" fill-rule="nonzero">
        <path d="M6.242 8.85v-7H2.543v7L.647 10.954C.301 11.301 0 12.017 0 12.526V23.15C0 24.168.855 25 1.896 25H6.89c1.04 0 1.895-.832 1.895-1.85V12.526c0-.509-.3-1.225-.647-1.595L6.242 8.85zm1.619 14.3c0 .51-.44.925-.971.925H1.896c-.532 0-.971-.416-.971-.925V12.526c0-.277.185-.74.393-.948l.023-.023.023-.023 1.873-2.08.23-.255V2.774h1.85v6.423l.232.254 1.895 2.104.024.023.023.023c.185.185.393.67.393.948V23.15H7.86zM2.83.925h3.237a.464.464 0 0 0 .462-.463A.464.464 0 0 0 6.067 0H2.83a.464.464 0 0 0-.463.462c0 .255.208.463.463.463z"/>
        <path d="M6.011 13.788H2.774a.927.927 0 0 0-.924.925v4.855c0 .509.416.925.924.925h3.237a.927.927 0 0 0 .925-.925v-4.855a.927.927 0 0 0-.925-.925zm0 5.78H2.774v-4.855h3.237v4.855zM17.478 9.702c-.115-.231-.439-.393-.693-.393h-4.462c-.255 0-.578.185-.694.393-.902 1.688-4 7.024.277 9.544.417.254.902.416 1.295.693.324.232.694.578.879.995v2.857h-1.387a.464.464 0 0 0-.463.463c0 .254.208.462.463.462h3.699a.464.464 0 0 0 .462-.462.464.464 0 0 0-.462-.463h-1.388V20.98c.185-.44.555-.763.879-.994.393-.3.879-.463 1.295-.694 4.323-2.543 1.202-7.879.3-9.59zm-6.727 4.041c.494-1.456 1.248-2.7 1.664-3.51h4.3c.416.81 1.633 2.646 1.665 3.51.023.162.046.301.07.463-.44.092-1.78.393-3.885.393-1.988 0-3.421-.3-3.884-.416.023-.139.023-.303.07-.44zm5.987 4.717c-.138.092-.3.162-.462.231a7.28 7.28 0 0 0-.902.509c-.323.23-.6.485-.786.74a4.052 4.052 0 0 0-.786-.74c-.3-.232-.624-.37-.901-.509-.162-.07-.324-.162-.463-.231-1.156-.694-1.757-1.78-1.757-3.33.624.14 2.035.394 3.93.394 1.966 0 3.33-.255 3.93-.393-.069 1.549-.647 2.658-1.803 3.329z"/>
    </g>
</svg>
