<?xml version="1.0" encoding="utf-8"?>
<!-- Generator: Adobe Illustrator 21.1.0, SVG Export Plug-In . SVG Version: 6.00 Build 0)  -->
<svg version="1.1" id="Layer_1" xmlns="http://www.w3.org/2000/svg" xmlns:xlink="http://www.w3.org/1999/xlink" x="0px" y="0px"
	 viewBox="0 0 45 45" style="enable-background:new 0 0 45 45;" xml:space="preserve">
<style type="text/css">
	.st0{fill:#ffffff;}
	.st1{fill:#f99c33; }
</style>
<g>
	<path class="st0" d="M-3.5-3.5h52.2v52.2H-3.5V-3.5z"/>
	<g>
		<g>
			<g>
				<path class="st1" d="M25.2,26.6h-5.3c-0.3,0-0.5,0.2-0.5,0.5c0,0.1,0,0.2,0.1,0.3l1.1,1.8c0.1,0.2,0.3,0.3,0.5,0.3h3.2
					c0.6,0,1.6-0.5,1.6-2.3C25.7,26.8,25.4,26.6,25.2,26.6z M24.1,28.4h-2.9l-0.4-0.7h3.8C24.4,28.3,24.1,28.4,24.1,28.4z"/>
				<path class="st1" d="M13.1,26.6c-0.2,0-0.3,0-0.4,0H7.4c-0.3,0-0.5,0.2-0.5,0.5c0,1.8,1,2.3,1.6,2.3h3.2c0.2,0,0.4-0.1,0.5-0.3
					l1.1-1.8C13.5,27,13.4,26.7,13.1,26.6z M11.4,28.4H8.5c0,0-0.4,0-0.5-0.7h3.8L11.4,28.4z"/>
				<path class="st1" d="M41.3,7.6h-9c-0.3,0-0.5,0.2-0.5,0.5c0,0.3,0.2,0.5,0.5,0.5h9c0.9,0,1.1,1.3,1.1,1.5V36h-3.9V24.9
					c0-0.3,0.1-1.2-0.5-1.9c-0.4-0.5-1.1-0.8-2.1-0.8h-2.3c-0.7,0-1.9,0.5-1.9,1.9c0,1.4,1.1,1.9,1.9,1.9h2.3c0.3,0,0.5-0.2,0.5-0.5
					S36.2,25,35.9,25h-2.3c-0.2,0-0.9-0.1-0.9-0.9c0-0.8,0.7-0.9,0.9-0.9h2.3c0.6,0,1,0.1,1.3,0.4c0.4,0.4,0.3,1,0.3,1v0.1v11.6
					c0,0.3,0.2,0.5,0.5,0.5h5c0.3,0,0.5-0.2,0.5-0.5V10.1c0,0,0,0,0-0.1C43.4,9.2,42.8,7.5,41.3,7.6z"/>
				<path class="st1" d="M39.5,15.7c0.8-0.2,1.4-1,1.2-1.9c-0.2-0.9-1-1.4-1.9-1.2c-0.9,0.2-1.4,1.1-1.2,1.9
					C37.8,15.4,38.7,15.9,39.5,15.7z"/>
				<path class="st1" d="M33.1,18.8c-0.2-0.1-0.5,0.1-0.7,0.3c0,0.3,0.1,0.6,0.4,0.7l4.4,1.3c0.2,0.1,0.5,0,0.6-0.2l1.9-2.7v16.6
					c0,0.3,0.2,0.5,0.5,0.5s0.5-0.2,0.5-0.5V16.6c0-0.1-0.1-0.3-0.2-0.4c-0.2-0.2-0.5-0.1-0.7,0.1L37.2,20L33.1,18.8z"/>
				<path class="st1" d="M28.7,22h-2.8v-1.2c0-3.8-3.3-4.8-5.1-4.8H12c-1.8,0-5.1,1-5.1,4.9v1.2H4.6c-0.8,0-2.3,0.4-2.3,1.9
					c0,1.6,1,2,2.3,2.1C4.3,26.5,4.1,27,4,27.5c-0.8,3-0.7,4.9-0.4,7.3c0.4,2.1,1.9,2.5,2,2.5h0.1H8h0.1c0.2,0,1.4-0.5,1.9-2.8h6.6
					h0.1h0.1H23c0.5,2.3,1.8,2.8,1.9,2.8H25h2.3h0.1c0.1,0,1.6-0.4,2-2.5c0.3-2.4,0.4-4.3-0.4-7.3c-0.2-0.6-0.4-1-0.6-1.4
					c1.3-0.1,2.6-0.3,2.6-2.2C31,22.4,29.5,22,28.7,22z M8,20.8c0-3.6,3.9-3.7,4.1-3.7h8.8c0,0,1,0,2.1,0.5c1.3,0.6,2,1.7,2,3.2v3.5
					h-8.2h-0.1h-0.1H8V20.8z M3.4,24c0-0.8,1.1-0.9,1.2-0.9h2.3v1.2v0.1c-0.5,0.1-1,0.3-1.5,0.7c0,0,0,0-0.1,0
					C3.5,25,3.4,24.8,3.4,24z M28.3,34.6c-0.3,1.3-1,1.6-1.1,1.7H25c-0.2-0.1-0.9-0.6-1.2-2.4c0-0.3-0.3-0.5-0.5-0.5h-6.6h-0.1h-0.1
					h-7c-0.3,0-0.5,0.2-0.5,0.5c-0.3,1.8-1,2.3-1.2,2.4H5.7c-0.2-0.1-0.9-0.4-1.1-1.7c-0.3-2.3-0.4-4,0.3-6.8
					c0.6-2.4,2.6-2.4,2.7-2.4h8.8c0.1,0,0.1,0,0.1,0h0.1h8.6c0.1,0,2.1,0.1,2.7,2.4C28.6,30.6,28.6,32.3,28.3,34.6z M28,25.1
					c-0.1,0-0.3,0.1-0.3,0.2c-0.5-0.4-1-0.7-1.6-0.9v-0.1v-1.2h2.7c0.1,0,1.2,0,1.2,0.9C30,24.8,29.8,25,28,25.1z"/>
			</g>
		</g>
	</g>
</g>
</svg>
