<svg xmlns="http://www.w3.org/2000/svg" width="16" height="16" viewBox="0 0 16 16">
    <g fill="#FFF" fill-rule="nonzero">
        <path d="M7.733 8c2.214 0 4-1.787 4-4s-1.786-4-4-4c-2.213 0-4 1.787-4 4s1.787 4 4 4zm0-6.933A2.925 2.925 0 0 1 10.667 4a2.925 2.925 0 0 1-2.934 2.933A2.925 2.925 0 0 1 4.8 4a2.925 2.925 0 0 1 2.933-2.933z"/>
        <path d="M7.733 6.4c.56 0 1.094-.267 1.467-.72.187-.24.16-.56-.08-.747-.24-.186-.56-.16-.747.08-.373.427-.96.427-1.306 0a.52.52 0 0 0-.747-.08.52.52 0 0 0-.08.747c.4.453.933.72 1.493.72zM1.04 16H14.4c.587 0 1.04-.48 1.04-1.04.027-3.253-2.613-5.893-5.867-5.893h-3.68A5.895 5.895 0 0 0 0 14.96C0 15.52.48 16 1.04 16zm4.853-5.867H9.6c2.64 0 4.8 2.16 4.827 4.8H1.067c0-2.64 2.16-4.8 4.826-4.8z"/>
    </g>
</svg>
