<svg xmlns="http://www.w3.org/2000/svg" width="39" height="38" viewBox="0 0 39 38">
    <g fill="none" fill-rule="evenodd">
        <path fill="#FFEBD5" d="M7 19c3.333-7.333 7.5-11.5 12.5-12.5 7.5-1.5 7 5.5 12 5.5s7 3.5 7 6.5v15c-.667 1.333-2 2-4 2-3 0-9.5-7.5-15-5.5S14 35.933 5 31.5C-1 28.544-.333 24.378 7 19z"/>
        <path fill="#F99C32" fill-rule="nonzero" d="M37.399 12.614a1.26 1.26 0 0 0-1.233-.055l-2.15 1.075a2.533 2.533 0 0 0-2.35-1.6c-.658 0-1.254.258-1.705.672a.621.621 0 0 0-.194-.04h-5.891a4.391 4.391 0 0 0-.944-1.688 5.648 5.648 0 0 0 2.363-4.011H28.5V5.7h-2.566a6.341 6.341 0 0 0-6.3-5.7A6.34 6.34 0 0 0 13.3 6.333c0 .35.284.634.633.634h.037l.002.01c.012.11.034.215.053.322.017.097.03.194.052.29.031.14.072.276.113.413.018.055.033.112.052.167.053.156.114.307.18.456l.04.092c.076.163.159.323.25.478l.021.037a5.66 5.66 0 0 0 1.602 1.746 4.442 4.442 0 0 0-1.135 2.955V20.9c0 .974.371 1.86.975 2.533h-2.242v-9.5a.634.634 0 0 0-.633-.633H1.9a.634.634 0 0 0-.633.633v9.5H.633a.634.634 0 0 0-.633.634V26.6c0 .35.284.633.633.633h3.84a8.173 8.173 0 0 0-1.306 4.434V34.2c0 .35.283.633.633.633h4.433A3.17 3.17 0 0 0 11.4 38a3.17 3.17 0 0 0 3.167-3.167H30.4A3.17 3.17 0 0 0 33.567 38a3.17 3.17 0 0 0 3.166-3.167h.634c.35 0 .633-.283.633-.633v-6.333a4.436 4.436 0 0 0-3.8-4.383v-7.893l1.966.984A1.266 1.266 0 0 0 38 15.442v-1.75c0-.443-.224-.845-.601-1.078zM24.7 31.667c0-2.935-1.548-5.51-3.865-6.967h3.232c.698 0 1.266.568 1.266 1.267V31.667H24.7zm-8.233-11.4H22.8c0 .35.284.633.633.633H26.6a2.536 2.536 0 0 1 2.533 2.533V28.5H26.6v-2.533a2.536 2.536 0 0 0-2.533-2.534H19a2.536 2.536 0 0 1-2.533-2.533v-.633zm10.133 9.5h1.9a2.54 2.54 0 0 1 2.454 1.9H26.6v-1.9zm5.643 1.9a3.803 3.803 0 0 0-1.843-2.653v-5.58c0-2.096-1.704-3.8-3.8-3.8h-2.533V17.1h5.7c.26 0 .482-.158.58-.381.386.237.835.381 1.32.381.463 0 .892-.134 1.266-.352v14.919h-.69zM31.667 13.3a1.268 1.268 0 0 1 0 2.533 1.268 1.268 0 0 1-1.267-1.266c0-.699.568-1.267 1.267-1.267zm-8.293.633h5.76v1.9h-5.7a.634.634 0 0 0-.634.634V19h-6.333v-5.067c0-1.006.465-1.928 1.275-2.533h3.78a3.145 3.145 0 0 1 1.227 2.006.633.633 0 0 0 .625.527zM15.89 8.697a4.514 4.514 0 0 1-.285-.524c-.004-.01-.01-.018-.013-.027a4.493 4.493 0 0 1-.206-.553l-.009-.024a4.514 4.514 0 0 1-.13-.602h2.825c-.818.739-1.442 1.64-1.807 2.237a4.452 4.452 0 0 1-.369-.498l-.006-.01zm6.003 1.436h-4.52c-.046-.028-.096-.052-.141-.081.64-1.11 2.102-3.085 3.668-3.085h3.122a4.394 4.394 0 0 1-2.129 3.166zm-2.26-8.866A5.075 5.075 0 0 1 24.661 5.7H14.606a5.075 5.075 0 0 1 5.027-4.433zm-6.966 14.566H9.5v-1.266h3.167v1.266zm-4.434-1.266V19a.634.634 0 0 1-1.266 0v-4.433h1.266zm-2.533 0v1.266H2.533v-1.266H5.7zM2.533 17.1H5.7V19c0 1.048.852 1.9 1.9 1.9s1.9-.852 1.9-1.9v-1.9h3.167v6.333H2.533V17.1zm2.938 8.867H1.267V24.7h5.759l-.034.025a8.26 8.26 0 0 0-1.51 1.23c-.003.005-.007.008-.011.012zm-1.038 5.7a6.93 6.93 0 0 1 1.824-4.683c.142-.156.29-.305.445-.447l.075-.068c.158-.14.322-.274.491-.398l.069-.052c.179-.129.364-.25.554-.36l.043-.027c.203-.117.412-.224.625-.32l.01-.005a6.929 6.929 0 0 1 2.073-.563c.009 0 .017-.003.025-.004.243-.027.487-.04.733-.04h5.067a6.975 6.975 0 0 1 6.966 6.967v1.9h-3.8v-.634a6.975 6.975 0 0 0-6.966-6.966A6.975 6.975 0 0 0 5.7 32.933v.634H4.433v-1.9zm6.967 5.066c-1.048 0-1.9-.852-1.9-1.9h3.8c0 1.048-.852 1.9-1.9 1.9zm2.443-3.166H6.966v-.634c0-3.142 2.558-5.7 5.7-5.7 3.143 0 5.7 2.558 5.7 5.7v.634h-4.523zm10.857 0v-.634h8.233v.634H24.7zm8.867 3.166c-1.048 0-1.9-.852-1.9-1.9h3.8c0 1.048-.853 1.9-1.9 1.9zm3.166-8.866v5.7H34.2V24.764a3.172 3.172 0 0 1 2.533 3.103zm0-12.425l-1.75-.875 1.75-.876v1.75z"/>
    </g>
</svg>
