<svg xmlns="http://www.w3.org/2000/svg" width="13" height="16" viewBox="0 0 13 16">
    <path fill="#FFF" fill-rule="nonzero" d="M11.77 13.462H4.093a1.858 1.858 0 0 0-1.325-1.325V1.154a.462.462 0 0 0-.3-.432L.623.03A.462.462 0 0 0 .3.893l1.546.582v10.662a1.846 1.846 0 1 0 2.248 2.248h7.675a.462.462 0 0 0 0-.923zm-9.462 1.384a.923.923 0 1 1 0-1.846.923.923 0 0 1 0 1.846zM12 3.77H4.154a.462.462 0 0 0-.462.462v7.846c0 .255.207.461.462.461H12a.462.462 0 0 0 .462-.461V4.23A.462.462 0 0 0 12 3.769zm-4.846.923H9v1.846H7.154V4.692zm4.384 6.923H4.615V4.692h1.616V7c0 .255.206.462.461.462h2.77A.462.462 0 0 0 9.923 7V4.692h1.615v6.923z"/>
</svg>
