<svg xmlns="http://www.w3.org/2000/svg" width="41" height="37" viewBox="0 0 41 37">
    <g fill="none" fill-rule="evenodd">
        <path fill="#FFEBD5" d="M9 20c3.333-7.333 7.5-11.5 12.5-12.5 7.5-1.5 7 5.5 12 5.5s7 3.5 7 6.5v15c-.667 1.333-2 2-4 2-3 0-9.5-7.5-15-5.5S16 36.933 7 32.5C1 29.544 1.667 25.378 9 20z"/>
        <path fill="#F99C32" fill-rule="nonzero" d="M32.247.15a.851.851 0 0 0-.758.864v6.809a4.28 4.28 0 0 0 3.405 4.175v3.644c-.986.355-1.703 1.293-1.703 2.394v13.617c0 1.4 1.154 2.553 2.554 2.553s2.553-1.154 2.553-2.553V18.036c0-1.101-.716-2.04-1.702-2.394v-3.644A4.28 4.28 0 0 0 40 7.823V1.014a.851.851 0 1 0-1.702 0v6.809c0 1.13-.702 2.076-1.702 2.42V1.014a.851.851 0 1 0-1.702 0v9.23a2.535 2.535 0 0 1-1.703-2.421V1.014a.851.851 0 0 0-.944-.864zM4.255.163C2.97.163 1.87.948 1.144 2.038.417 3.128 0 4.558 0 6.121c0 1.563.417 2.992 1.144 4.082.56.842 1.341 1.498 2.26 1.756v3.683c-.986.355-1.702 1.293-1.702 2.394v13.617c0 1.4 1.154 2.553 2.553 2.553 1.4 0 2.553-1.154 2.553-2.553V18.036c0-1.101-.716-2.04-1.702-2.394v-3.683c.92-.258 1.7-.914 2.261-1.756.727-1.09 1.144-2.519 1.144-4.082 0-1.564-.417-2.992-1.144-4.083C6.64.948 5.54.163 4.255.163zm0 1.702c.595 0 1.197.36 1.702 1.117.506.758.851 1.882.851 3.139s-.345 2.38-.85 3.138c-.506.758-1.108 1.117-1.703 1.117s-1.197-.36-1.702-1.117c-.505-.758-.85-1.881-.85-3.138s.345-2.38.85-3.139c.505-.757 1.107-1.117 1.702-1.117zM20 5.27c-6.57 0-11.915 5.344-11.915 11.915 0 6.57 5.345 11.914 11.915 11.914 6.57 0 11.915-5.344 11.915-11.914C31.915 10.615 26.57 5.27 20 5.27zm0 1.702a10.2 10.2 0 0 1 10.213 10.213A10.2 10.2 0 0 1 20 27.397 10.2 10.2 0 0 1 9.787 17.185 10.2 10.2 0 0 1 20 6.972zm0 3.83c-3.515 0-6.383 2.867-6.383 6.383 0 3.515 2.868 6.383 6.383 6.383s6.383-2.868 6.383-6.383c0-3.516-2.868-6.383-6.383-6.383zm0 1.702a4.668 4.668 0 0 1 4.68 4.68A4.668 4.668 0 0 1 20 21.866a4.668 4.668 0 0 1-4.68-4.68A4.668 4.668 0 0 1 20 12.504zm-15.745 4.68c.486 0 .851.365.851.852v13.617a.831.831 0 0 1-.85.85.831.831 0 0 1-.852-.85V18.036c0-.487.365-.851.851-.851zm31.49 0c.486 0 .85.365.85.852v13.617a.831.831 0 0 1-.85.85.831.831 0 0 1-.851-.85V18.036c0-.487.364-.851.85-.851z"/>
    </g>
</svg>
