<svg xmlns="http://www.w3.org/2000/svg" width="12" height="16" viewBox="0 0 12 16">
    <g fill="#FFF" fill-rule="nonzero">
        <path d="M9.698 11.45l-.015 3.91a.32.32 0 0 0 .32.32h.013l1.582-.064a.32.32 0 0 0 .307-.318l.015-3.985a.941.941 0 0 1-.266.058l-1.956.08zM11.838.39a.313.313 0 0 0-.278-.058c-1.482.38-2.586 1.728-2.752 3.354l-.685 6.822a.31.31 0 0 0 .083.25c.061.067.148.102.234.102h.013l3.165-.128a.325.325 0 0 0 .307-.32l.035-9.77c0-.099-.045-.191-.122-.252zM1.92 6.953c-.34 0-.658-.088-.95-.244L.749 14.34c-.025.358.096.71.332.967.218.237.51.37.822.374h.015c.31 0 .602-.128.823-.36.243-.256.37-.61.346-.962l-.192-7.662a2 2 0 0 1-.974.256zM1.92.32C.845.32 0 1.637 0 3.317c0 1.68.845 2.995 1.92 2.995 1.078 0 1.92-1.315 1.92-2.995 0-1.68-.842-2.999-1.92-2.999z"/>
    </g>
</svg>
