<svg xmlns="http://www.w3.org/2000/svg" width="16" height="16" viewBox="0 0 16 16">
    <path fill="#FFF" fill-rule="nonzero" d="M8.1.16c-.353 0-.66.151-.902.338-.24.186-.437.41-.621.632-.37.445-.718.858-.983.963-.266.105-.81.046-1.394-.02a4.155 4.155 0 0 0-.9-.03c-.306.031-.633.132-.886.372s-.363.552-.398.845c-.036.293-.008.583.023.863.063.56.116 1.082.003 1.336-.112.253-.545.582-1.012.93-.234.175-.472.36-.67.588-.196.23-.356.523-.36.861-.004.339.148.63.34.86.19.228.423.412.652.586.459.347.883.675.99.928.105.252.038.774-.04 1.334-.039.28-.073.572-.045.866.028.293.13.603.376.842.247.239.57.339.875.369.306.03.61 0 .904-.035.585-.069 1.13-.126 1.393-.022.263.105.6.514.958.957.18.221.37.447.606.632.237.186.54.335.893.335s.658-.151.9-.338a4.02 4.02 0 0 0 .621-.634c.37-.444.718-.856.983-.961.266-.105.81-.047 1.394.019.292.033.594.06.9.03.306-.032.633-.133.886-.372.253-.24.363-.551.398-.844.036-.293.01-.584-.021-.864-.063-.56-.118-1.083-.005-1.336.112-.253.546-.582 1.014-.931.234-.175.47-.36.667-.59.197-.229.357-.52.361-.859.004-.338-.148-.63-.34-.858a3.872 3.872 0 0 0-.65-.586c-.46-.347-.885-.675-.991-.928-.106-.253-.039-.777.039-1.337.039-.28.073-.57.045-.863-.028-.293-.128-.605-.375-.844-.246-.238-.572-.338-.878-.368a4.171 4.171 0 0 0-.902.033c-.585.068-1.13.129-1.393.025-.263-.105-.6-.517-.958-.96a3.833 3.833 0 0 0-.605-.63C8.756.31 8.453.16 8.1.16zm-.01.784c.12 0 .231.044.379.16.147.115.31.299.48.508.337.417.675.954 1.282 1.195.608.241 1.253.095 1.805.031.276-.033.53-.052.72-.033.19.02.302.065.386.146.084.081.13.189.147.372.018.182-.004.424-.04.689-.074.528-.235 1.143.01 1.728.246.584.802.916 1.235 1.244.216.164.407.321.526.464.12.142.164.25.163.365-.002.115-.05.225-.172.367-.123.143-.317.301-.538.466-.44.33-1.006.663-1.267 1.248-.26.586-.115 1.2-.056 1.729.03.264.046.506.023.689-.022.183-.071.288-.157.37-.086.081-.2.127-.391.147-.191.02-.442 0-.717-.03-.55-.062-1.191-.206-1.805.038-.613.243-.967.78-1.315 1.2a3.5 3.5 0 0 1-.493.51c-.15.117-.262.161-.382.162-.12 0-.234-.045-.382-.16a3.33 3.33 0 0 1-.478-.508c-.338-.418-.679-.957-1.286-1.198s-1.25-.092-1.803-.028c-.276.033-.53.049-.72.03-.19-.02-.3-.065-.385-.146-.084-.081-.13-.187-.148-.37-.018-.183.006-.425.042-.69.073-.528.233-1.143-.012-1.727-.246-.585-.804-.916-1.236-1.244a3.367 3.367 0 0 1-.525-.464c-.12-.143-.164-.25-.163-.366.002-.115.05-.224.172-.367.123-.143.316-.3.536-.466.441-.33 1.008-.661 1.269-1.246.26-.586.115-1.202.056-1.73a3.194 3.194 0 0 1-.023-.688c.022-.183.07-.291.156-.373.086-.082.2-.127.39-.147.191-.02.446 0 .72.03.551.062 1.19.209 1.804-.035.613-.243.969-.784 1.317-1.203.174-.21.34-.392.49-.508.151-.116.265-.16.385-.16zM6.4 4.29c-.879 0-1.6.72-1.6 1.6 0 .879.721 1.6 1.6 1.6.879 0 1.6-.721 1.6-1.6 0-.88-.721-1.6-1.6-1.6zm3.717.517l-4.8 4.8.566.566 4.8-4.8-.566-.566zM6.4 5.09c.447 0 .8.353.8.8 0 .446-.353.8-.8.8a.794.794 0 0 1-.8-.8c0-.447.353-.8.8-.8zm3.2 2.4c-.879 0-1.6.72-1.6 1.6 0 .879.721 1.6 1.6 1.6.879 0 1.6-.721 1.6-1.6 0-.88-.721-1.6-1.6-1.6zm0 .8c.447 0 .8.353.8.8 0 .446-.353.8-.8.8a.794.794 0 0 1-.8-.8c0-.447.353-.8.8-.8z"/>
</svg>
