<svg xmlns="http://www.w3.org/2000/svg" width="39" height="40" viewBox="0 0 39 40">
    <g fill="none" fill-rule="evenodd">
        <path fill="#FFEBD5" d="M6 20c3.333-7.333 7.5-11.5 12.5-12.5 7.5-1.5 7 5.5 12 5.5s7 3.5 7 6.5v15c-.667 1.333-2 2-4 2-3 0-9.5-7.5-15-5.5S13 36.933 4 32.5c-6-2.956-5.333-7.122 2-12.5z"/>
        <g fill="#F99C32" fill-rule="nonzero">
            <path d="M10.19 15.68H8.42a2.561 2.561 0 0 0-2.559 2.558v1.77a2.561 2.561 0 0 0 2.558 2.559h1.77a2.562 2.562 0 0 0 2.559-2.56v-1.769a2.562 2.562 0 0 0-2.559-2.558zm.982 4.328c0 .543-.441.984-.982.984H8.42a.983.983 0 0 1-.982-.984v-1.77c0-.54.44-.981.982-.981h1.77c.54 0 .982.44.982.981v1.77zM30.59 20.008v-1.77a2.562 2.562 0 0 0-2.56-2.558h-1.769a2.561 2.561 0 0 0-2.558 2.558v1.77a2.561 2.561 0 0 0 2.558 2.559h1.77c1.41 0 2.558-1.148 2.558-2.559zm-5.31 0v-1.77c0-.54.44-.981.981-.981h1.77c.542 0 .982.44.982.981v1.77c0 .543-.44.984-.983.984h-1.769a.983.983 0 0 1-.982-.984zM19.11 24.206h-1.77a2.561 2.561 0 0 0-2.558 2.56v1.77a2.56 2.56 0 0 0 2.558 2.557h1.77a2.56 2.56 0 0 0 2.56-2.557v-1.77a2.561 2.561 0 0 0-2.56-2.56zm.982 4.33c0 .54-.44.98-.981.98H17.34c-.54 0-.98-.44-.98-.98v-1.77c0-.542.439-.983.98-.983h1.77c.541 0 .982.44.982.982v1.771zM19.11 15.68h-1.77a2.56 2.56 0 0 0-2.558 2.558v1.77a2.56 2.56 0 0 0 2.558 2.559h1.77a2.562 2.562 0 0 0 2.56-2.56v-1.769a2.562 2.562 0 0 0-2.56-2.558zm.982 4.328c0 .543-.44.984-.981.984H17.34c-.54 0-.98-.441-.98-.984v-1.77c0-.54.439-.981.98-.981h1.77c.541 0 .982.44.982.981v1.77zM10.19 24.206H8.42a2.562 2.562 0 0 0-2.559 2.56v1.77a2.56 2.56 0 0 0 2.558 2.557h1.77a2.56 2.56 0 0 0 2.559-2.557v-1.77a2.562 2.562 0 0 0-2.559-2.56zm.982 4.33c0 .54-.441.98-.982.98H8.42a.982.982 0 0 1-.982-.98v-1.77c0-.542.44-.983.982-.983h1.77c.54 0 .982.44.982.982v1.771z"/>
            <path d="M38.454 36.339a5.154 5.154 0 0 1-1.5-3.621v-3.665c0-.861-.211-1.674-.58-2.392V6.6h-.001c0-1.82-1.48-3.3-3.3-3.3h-4.949V.825a.824.824 0 1 0-1.65 0V3.3H11.625V.825a.824.824 0 1 0-1.65 0V3.3H3.377c-1.819 0-3.3 1.48-3.3 3.3v26.397c0 1.82 1.481 3.3 3.3 3.3H24.95c-.014.013-.026.028-.04.042a.88.88 0 0 0 .621 1.501h4.394a1.76 1.76 0 0 0 1.758 1.757 1.76 1.76 0 0 0 1.757-1.757h4.393a.878.878 0 0 0 .622-1.501zM1.727 6.599c0-.909.74-1.65 1.65-1.65h6.599V6.6c-.91 0-1.65.741-1.65 1.65 0 .91.74 1.65 1.65 1.65.91 0 1.65-.74 1.65-1.65v-3.3h14.848V6.6c-.91 0-1.65.74-1.65 1.65 0 .909.74 1.65 1.65 1.65.911 0 1.65-.74 1.65-1.65v-3.3h4.95c.911 0 1.65.74 1.65 1.65v4.95H1.727v-4.95zm24.683 26.12c0 .664-.133 1.32-.382 1.928H3.377c-.91 0-1.65-.74-1.65-1.65V13.2h32.997v11.556a5.239 5.239 0 0 0-3.042-.973 5.278 5.278 0 0 0-5.272 5.272v3.665zm.875 3.363c.57-1.02.883-2.183.883-3.363v-3.665a3.517 3.517 0 0 1 3.514-3.514 3.517 3.517 0 0 1 3.514 3.514v3.665c0 1.18.312 2.343.883 3.363h-8.794z"/>
        </g>
    </g>
</svg>
