<svg xmlns="http://www.w3.org/2000/svg" width="16" height="13" viewBox="0 0 16 13">
    <path fill="#FFF" fill-rule="nonzero" d="M3.225 5.042c0 .61-.508 1.117-1.117 1.117a.39.39 0 0 0-.381.381v2.845a.39.39 0 0 0 .38.381c.61 0 1.118.508 1.118 1.118a.39.39 0 0 0 .381.38h8.483a.39.39 0 0 0 .38-.38c0-.61.509-1.118 1.118-1.118a.39.39 0 0 0 .381-.38V6.54a.39.39 0 0 0-.38-.38c-.61 0-1.118-.509-1.118-1.118a.39.39 0 0 0-.381-.381H3.606a.39.39 0 0 0-.38.38zm9.981 1.854v2.16a1.88 1.88 0 0 0-1.447 1.447H3.937a1.876 1.876 0 0 0-1.474-1.448v-2.16a1.906 1.906 0 0 0 1.474-1.472h7.822c.152.736.736 1.32 1.447 1.473zM7.848 9.9c1.073 0 1.95-.877 1.95-1.95S8.92 6 7.847 6c-1.074 0-1.95.877-1.95 1.95s.876 1.95 1.95 1.95zm0-3.144c.664 0 1.193.53 1.193 1.194 0 .665-.529 1.194-1.193 1.194A1.187 1.187 0 0 1 6.654 7.95c0-.665.529-1.194 1.194-1.194zm7.238-3.594h-1.283L12.667.667c-.077-.204-.28-.305-.483-.229C8.078 2.238 6.017 3.145 6 3.162H.61a.39.39 0 0 0-.381.381v8.84a.39.39 0 0 0 .38.38h14.477a.39.39 0 0 0 .38-.38v-8.84a.39.39 0 0 0-.38-.38zm-2.902-1.829l.806 1.83H8l4.184-1.83zm2.52 10.668H.99V3.924h13.715v8.077z"/>
</svg>
