<svg xmlns="http://www.w3.org/2000/svg" width="16" height="16" viewBox="0 0 16 16">
    <path fill="#FFF" fill-rule="nonzero" d="M15.35.651c-.538-.536-1.475-.537-2.012 0l-1.006 1.006-10.201.005c-1.046 0-1.896.85-1.896 1.896v10.311c0 1.046.85 1.896 1.896 1.896h10.311c1.046 0 1.896-.85 1.896-1.896V3.673l1.01-1.01c.269-.269.417-.626.417-1.006S15.617.919 15.35.65zM8.485 8.184l-.838.168.168-.838 5.186-5.186.67.67-5.186 5.186zM2.131 2.61h9.248L9.483 4.506h-8.3v-.948a.95.95 0 0 1 .948-.948zm10.311 12.207H2.131a.95.95 0 0 1-.948-.948V5.454h7.303l-1.523 1.6a.481.481 0 0 0-.048.132L6.58 8.862a.475.475 0 0 0 .557.558l1.676-.335a.479.479 0 0 0 .242-.13l3.502-3.501h.833v8.415a.95.95 0 0 1-.948.948zm2.236-12.825l-.335.335-.67-.67.335-.335a.485.485 0 0 1 .67 0 .473.473 0 0 1 0 .67z"/>
</svg>
