<svg xmlns="http://www.w3.org/2000/svg" width="16" height="24" viewBox="0 0 16 24">
    <path fill="#FFF" fill-rule="nonzero" d="M2.701.35L1.384 2.977H.482A.5.5 0 0 0 0 3.458v2.89a.5.5 0 0 0 .482.48h.76l1.166 16.575a.5.5 0 0 0 .481.443h9.631a.5.5 0 0 0 .482-.443l1.166-16.574h.76a.5.5 0 0 0 .481-.482V3.458a.5.5 0 0 0-.481-.482h-.903L12.708.351a.492.492 0 0 0-.429-.264H3.13a.476.476 0 0 0-.429.264zm.722.7h8.563l.963 1.926H2.46l.963-1.926zM.963 3.94h13.483v1.926H.963V3.94zm1.25 2.889h10.984l-.36 5.19h-2.108c-.642-1.004-1.747-1.685-3.024-1.685s-2.383.681-3.025 1.686H2.573l-.36-5.191zm5.492 4.468a2.64 2.64 0 0 1 2.347 1.423c.08.157.253.263.429.263h2.28l-.166 1.926h-2.114a.495.495 0 0 0-.429.256 2.647 2.647 0 0 1-2.347 1.43 2.647 2.647 0 0 1-2.348-1.43.492.492 0 0 0-.429-.256H2.814l-.166-1.926h2.28a.492.492 0 0 0 .43-.263 2.64 2.64 0 0 1 2.347-1.423zm-4.816 4.575h1.799c.642 1 1.743 1.686 3.017 1.686 1.273 0 2.374-.686 3.017-1.686h1.798l-.444 7.011H3.333l-.444-7.01z"/>
</svg>
