<svg xmlns="http://www.w3.org/2000/svg" width="25" height="24" viewBox="0 0 25 24">
    <g fill="#FFF" fill-rule="nonzero">
        <path d="M24.75 16.526c0-1.58-1.707-2.935-4.807-3.814a.322.322 0 0 0-.122-.01c-.87-1.588-2.215-2.827-4.094-2.958a3.551 3.551 0 0 0-.17-.36c-.49-.883-1.265-1.343-2.3-1.376-.497-.51-1.213-.896-2.247-.896-1.633 0-2.37 1.45-2.588 1.993-1.167.645-2.215 1.883-3.005 3.509C3.432 13.135.25 14.316.25 16.526c0 1.3 1.125 2.344 2.867 3.12.257.813 1.82 4.354 9.568 4.354 7.649 0 8.99-3.46 9.21-4.358 1.735-.776 2.855-1.82 2.855-3.116zM9.154 9.835c.73-.293 1.414-.248 1.97.108-1.364.337-3.822 1.582-4.765 6.158-.055.27.076.546.294.616.034.01.068.015.101.015.182 0 .348-.152.395-.38 1.02-4.947 3.899-5.469 4.69-5.518.13.389.146.847.085 1.333-.857-.054-2.571.365-3.505 4.223-.065.268.057.55.273.63a.336.336 0 0 0 .118.022c.175 0 .337-.142.39-.36.706-2.919 1.814-3.48 2.513-3.51-.468 1.653-1.44 3.275-1.458 3.302-.136.222-.102.54.076.71.074.07.161.104.248.104a.385.385 0 0 0 .324-.199c.136-.222 3.327-5.462 1.059-7.682-.618-.604-1.383-.862-2.211-.76a1.76 1.76 0 0 1 1.259-.523c1.1 0 1.87.521 2.29 1.55.71 1.742.278 4.693-1.006 6.863-.133.226-.094.542.087.708a.356.356 0 0 0 .241.098.387.387 0 0 0 .329-.207c1.477-2.497 1.93-5.827 1.076-7.919l-.022-.052c.376.15.668.41.88.792.928 1.672.126 5.31-.262 6.57-.08.26.026.553.236.653a.342.342 0 0 0 .145.033c.164 0 .319-.124.381-.325.028-.091.335-1.105.547-2.418.326.271.78.858.973 2.094.037.242.208.41.4.41a.332.332 0 0 0 .077-.01c.221-.052.366-.318.323-.592-.3-1.924-1.155-2.68-1.635-2.959.025-.26.043-.523.053-.788.552.062 1.845.541 2.37 3.567.042.237.21.399.398.399a.34.34 0 0 0 .087-.011c.22-.06.36-.328.313-.602-.646-3.719-2.407-4.29-3.176-4.359a7.442 7.442 0 0 0-.093-.828c1.11.194 3.238 1.091 4.045 5.047.046.229.213.381.395.381a.333.333 0 0 0 .1-.015c.218-.069.35-.344.295-.615l-.026-.114c.632.305.725.534.73.534-.15.613-3.318 1.757-8.843 1.757-5.526 0-8.695-1.144-8.843-1.736 0-.003.059-.181.5-.434l-.01.039c-.061.268.063.549.28.626.216.076.442-.08.504-.348.84-3.635 2.62-5.523 4.005-6.078zm3.531 13.153c-5.404 0-7.545-1.766-8.357-2.876 2.297.76 5.278 1.157 8.172 1.157 2.943 0 5.977-.41 8.29-1.196-.67 1.087-2.61 2.915-8.105 2.915zm-.185-2.731c-6.739 0-11.435-1.966-11.435-3.73 0-.75 1.03-1.874 3.848-2.731-.067.182-.131.368-.193.557-.723.285-1.66.765-1.66 1.666 0 2.178 6.071 2.76 9.658 2.76 3.587 0 9.658-.582 9.658-2.76 0-.94-1.026-1.431-1.797-1.718a.339.339 0 0 0-.075-.018 10.525 10.525 0 0 0-.142-.402c2.622.852 3.573 1.938 3.573 2.645 0 1.765-4.696 3.73-11.435 3.73zM12.183 5.495a.408.408 0 1 0 .63.516c.461-.561 1.054-1.97.004-3.284-.86-1.073-.115-1.918-.025-2.013a.408.408 0 0 0-.585-.568c-.475.487-1.092 1.76-.027 3.09.896 1.12.039 2.214.003 2.259zM8.093 6.136a.407.407 0 1 0 .63.517c.31-.378.71-1.326.004-2.209-.429-.536-.096-.946-.024-1.024a.408.408 0 0 0-.586-.567c-.325.332-.748 1.2-.027 2.1.459.573.05 1.125.003 1.183zM16.698 6.136a.408.408 0 1 0 .63.517c.31-.378.71-1.326.004-2.209-.429-.536-.096-.946-.024-1.024a.408.408 0 0 0-.586-.567c-.325.332-.748 1.2-.027 2.1.459.573.05 1.125.003 1.183z"/>
    </g>
</svg>
