<svg xmlns="http://www.w3.org/2000/svg" width="25" height="25" viewBox="0 0 25 25">
    <g fill="#FFF" fill-rule="nonzero">
        <path d="M9.342 11.531a2.598 2.598 0 1 1 0-5.195 2.598 2.598 0 0 1 0 5.195zm0-4.195a1.598 1.598 0 1 0 0 3.195 1.598 1.598 0 0 0 0-3.195zM16.11 12.102a2.106 2.106 0 1 1 0-4.212 2.106 2.106 0 0 1 0 4.212zm0-3.212a1.106 1.106 0 1 0 0 2.212 1.106 1.106 0 0 0 0-2.212zM12.548 17.923a1.867 1.867 0 1 1 0-3.733 1.867 1.867 0 0 1 0 3.733zm0-2.733a.867.867 0 1 0 0 1.733.867.867 0 0 0 0-1.733z"/>
        <circle cx="13.716" cy="6.436" r="1"/>
        <circle cx="9.208" cy="13.619" r="1"/>
        <circle cx="12.247" cy="20.04" r="1"/>
        <path d="M23.83 4.96C21.27 1.928 16.94.115 12.25.113 7.559.114 3.23 1.927.67 4.96A1.989 1.989 0 0 0 .233 6.6a2.065 2.065 0 0 0 2.324 1.67L11.2 24.252c.206.386.608.626 1.045.626.002 0 .002 0 .005-.003.003.003.003.003.005.003.437 0 .839-.24 1.045-.626l2.919-5.396v1.48a.509.509 0 0 0 1.017 0v-3.36l1.287-2.38v5.245a.509.509 0 0 0 1.017 0v-7.127l2.403-4.443a2.068 2.068 0 0 0 1.983-.852c.173-.244.289-.524.34-.818a1.989 1.989 0 0 0-.436-1.64zM12.405 23.77a.164.164 0 0 1-.15.09h-.01a.164.164 0 0 1-.15-.09L3.493 7.866c.103-.078.197-.169.28-.27 1.772-2.105 5.021-3.412 8.477-3.414 3.456.002 6.705 1.31 8.477 3.415.083.1.177.19.28.27l-8.602 15.901zm10.86-17.347a1.025 1.025 0 0 1-.503.714l-.003.003a.994.994 0 0 1-1.253-.198c-1.96-2.327-5.508-3.774-9.256-3.776-3.748.002-7.295 1.449-9.256 3.776a.994.994 0 0 1-1.253.198l-.003-.003a1.025 1.025 0 0 1-.503-.714.969.969 0 0 1 .21-.806C3.816 2.81 7.855 1.13 12.25 1.129c4.396.002 8.434 1.68 10.804 4.488.188.223.266.52.211.806z"/>
    </g>
</svg>
