<svg xmlns="http://www.w3.org/2000/svg" data-name="Layer 1" width="100" height="125" style=""><rect id="backgroundrect" width="100%" height="100%" x="0" y="0" fill="none" stroke="none"/><title>A_81</title><g class="currentLayer" style=""><title>Layer 1</title><path d="M65.39919518015675,65.00010964857523 V22.180907302965576 a0.9378738414633275,0.9378738414633275 0 0 0 -0.9491678726673128,-0.9491678726673128 h-57.6539496588707 a0.9378738414633275,0.9378738414633275 0 0 0 -0.9491678726673128,0.9491678726673128 v74.54700483083725 a0.9377671933877467,0.9377671933877467 0 0 0 0.9491678726673128,0.9490505597841745 h42.157984277009966 a25.626839349526172,25.626839349526172 0 0 0 1.6103859412670136,4.265923023223877 h-43.76837021827698 a5.215944080495835,5.215944080495835 0 0 1 -5.2150908958911915,-5.214973583008051 V22.180907302965576 A5.215976074918509,5.215976074918509 0 0 1 6.796066983811192,16.965816407074385 h57.6539496588707 a5.215976074918509,5.215976074918509 0 0 1 5.2150908958911915,5.2150908958911915 V63.78432158695643 A26.068383712044955,26.068383712044955 0 0 0 65.39919518015675,65.00010964857523 zM57.05982758051686,30.641032518585376 H26.3578835991066 v3.838914793406725 H57.05982758051686 zm0,13.447138537074329 H26.3578835991066 v3.838914793406725 H57.05982758051686 zm0,13.447138537074329 H26.3578835991066 v3.838914793406725 H57.05982758051686 zM56.01411120502644,70.98306668864673 h-29.658829818964 v3.8393307209014895 h26.4060635137558 A26.58843172299862,26.58843172299862 0 0 1 56.01411120502644,70.98306668864673 zm-29.658829818964,17.28765305161476 h21.617564920186997 a25.231612246232032,25.231612246232032 0 0 1 0.5652348005771637,-3.8393307209014895 h-22.182799720764162 zM19.12945833798223,27.340701171668226 H12.220444063221745 v6.909078263605833 h6.9090142747604855 zm0,13.447255849957466 H12.220444063221745 v6.909078263605833 h6.9090142747604855 zm0,13.447191861112119 H12.220444063221745 v6.909088928413391 h6.9090142747604855 zm0,13.447202525919677 H12.220444063221745 v6.909088928413391 h6.9090142747604855 zM12.220444063221745,88.0385788741452 h6.9090142747604855 V81.12950061053937 H12.220444063221745 zm54.26157035791993,0.33146221890449556 a2.132737550653219,2.132737550653219 0 1 0 -3.0161462199175357,3.0161355551099778 l8.505290675628185,8.50476810005784 a2.1321829806602004,2.1321829806602004 0 0 0 3.0161462199175357,0 l21.95189597232461,-21.95243987751007 a2.132737550653219,2.132737550653219 0 0 0 -3.0161355551099778,-3.0161462199175357 L73.47922665440731,95.36673075074499 zm28.491033391356467,-2.434999526463747 a2.2231964483606816,2.2231964483606816 0 0 0 -1.7781966881930829,2.3673633169305326 a18.445957800495624,18.445957800495624 0 1 1 -8.514206454746724,-13.651401596233846 c1.2460014614307882,0.7846952105069165 2.7660458178734784,0.853440560026169 3.5311177824735642,-0.04211532504677776 a2.2298086290466785,2.2298086290466785 0 0 0 -0.7395190856909756,-3.230743477600813 A22.692438879541157,22.692438879541157 0 1 0 97.4370342859047,87.85159280322974 A2.097149087831974,2.097149087831974 0 0 0 94.97300515326792,85.93504156658595 z" id="svg_1" class="" fill="#ffffff" fill-opacity="1"/></g></svg>