<svg xmlns="http://www.w3.org/2000/svg" width="25" height="22" viewBox="0 0 25 22">
    <g fill="#FFF" fill-rule="nonzero">
        <path d="M20.417 19.371H4.583C2.056 19.371 0 16.315 0 13.788c0-.23.187-.417.417-.417h24.166c.23 0 .417.186.417.417 0 2.527-2.056 5.583-4.583 5.583zM.857 14.205c.207 1.872 1.8 4.333 3.726 4.333h15.834c1.927 0 3.519-2.46 3.727-4.333H.856z"/>
        <path d="M16.667 16.705H4.583c-.974 0-1.546-.492-1.977-.972a.417.417 0 1 1 .62-.556c.455.506.822.694 1.357.694h12.083a.417.417 0 0 1 0 .834zM20.417 16.705h-2.084a.417.417 0 1 1 0-.834h2.084c.535 0 .902-.188 1.356-.694a.417.417 0 0 1 .62.556c-.43.48-1.002.972-1.976.972zM19.583 21.038H5.417c-.69 0-1.25-.56-1.25-1.25s.56-1.25 1.25-1.25h14.166c.69 0 1.25.56 1.25 1.25s-.56 1.25-1.25 1.25zM5.417 19.37a.417.417 0 0 0 0 .834h14.166a.417.417 0 0 0 0-.834H5.417zM10.417 13.371a3.337 3.337 0 0 1-3.334-3.333 3.337 3.337 0 0 1 3.334-3.333c1.303 0 2.493.768 3.033 1.956.09.2.012.434-.18.539a3.686 3.686 0 0 0-1.153.982c-.605.778-.874 1.747-.74 2.658a.417.417 0 0 1-.334.47c-.212.04-.423.061-.626.061zm0-5.833a2.503 2.503 0 0 0-2.5 2.5 2.494 2.494 0 0 0 2.597 2.498c-.04-1.003.294-2.026.944-2.864.302-.389.656-.72 1.057-.988a2.505 2.505 0 0 0-2.098-1.146z"/>
        <path d="M16.5 9.273a.419.419 0 0 1-.225-.066c-.855-.549-2.006-.552-3.005-.008a.416.416 0 0 1-.578-.194 2.48 2.48 0 0 0-2.9-1.385.415.415 0 0 1-.521-.376c-.081-1.274.409-2.422 1.346-3.149.798-.62 1.817-.853 2.867-.657 1.032.192 1.973.778 2.65 1.65.891 1.15 1.176 2.605.763 3.895a.419.419 0 0 1-.397.29zm-6.083-2.568c1.159 0 2.23.608 2.832 1.58.984-.418 2.056-.431 2.968-.047.13-.897-.132-1.853-.742-2.638-.55-.711-1.313-1.188-2.144-1.343-.812-.15-1.595.025-2.204.497-.6.465-.96 1.166-1.022 1.966.105-.01.209-.015.312-.015zM10.833 14.205H2.5a.417.417 0 0 1-.364-.62c.225-.405 2.256-3.964 4.114-3.964H7.5c.23 0 .417.186.417.417 0 1.266.948 2.333 2.205 2.48.1.012.195.062.262.138l.76.855a.416.416 0 0 1-.31.694zm-7.6-.834h6.673l-.043-.047a3.332 3.332 0 0 1-2.753-2.87h-.86c-.888 0-2.187 1.6-3.018 2.917zM21.746 14.205h-4.318a.416.416 0 0 1-.36-.207l-.024-.04a2.165 2.165 0 0 1-.092-.168.417.417 0 0 1 .02-.395c.475-.784.637-1.71.445-2.537a.416.416 0 0 1 .112-.39 2.898 2.898 0 0 1 2.054-.847 2.92 2.92 0 0 1 2.917 2.917c0 .51-.136 1.015-.393 1.46a.418.418 0 0 1-.361.207zm-3.82-.834h3.565c.115-.263.176-.546.176-.833a2.086 2.086 0 0 0-3.39-1.623c.133.81.008 1.674-.351 2.456z"/>
        <path d="M17.214 14.205h-5.988a.417.417 0 0 1-.38-.245c-.608-1.342-.369-3.025.612-4.288.677-.872 1.618-1.459 2.65-1.65 1.05-.197 2.068.037 2.867.657 1.544 1.198 1.8 3.544.584 5.342a.417.417 0 0 1-.345.184zm-5.706-.834h5.477c.838-1.406.627-3.144-.52-4.034-.609-.472-1.392-.648-2.205-.497-.83.155-1.592.632-2.144 1.343-.733.945-.96 2.169-.608 3.188zM21.732 11.64a.416.416 0 0 1-.294-.712l2.85-2.851a.416.416 0 1 1 .59.589l-2.851 2.851a.416.416 0 0 1-.295.122z"/>
        <path d="M24.583 10.455h-1.666a.417.417 0 1 1 0-.834h1.666a.417.417 0 1 1 0 .834zM16.25 6.288a.416.416 0 0 1-.295-.711l1.667-1.667a.416.416 0 1 1 .59.59l-1.667 1.666a.416.416 0 0 1-.295.122z"/>
        <path d="M17.917 6.288H16.25a.417.417 0 1 1 0-.833h1.667a.417.417 0 1 1 0 .833z"/>
        <path d="M16.25 6.288a.417.417 0 0 1-.417-.417V4.205a.417.417 0 1 1 .834 0V5.87c0 .23-.187.417-.417.417zM13.333 11.288a.416.416 0 0 1-.294-.711l.416-.417a.416.416 0 1 1 .59.59l-.417.416a.416.416 0 0 1-.295.122zM5.833 12.538a.416.416 0 0 1-.294-.711l.416-.417a.416.416 0 1 1 .59.59l-.417.416a.416.416 0 0 1-.295.122zM19.583 12.538a.416.416 0 0 1-.294-.711l.416-.417a.416.416 0 1 1 .59.59l-.417.416a.416.416 0 0 1-.295.122zM15.833 12.538a.416.416 0 0 1-.294-.122l-.417-.417a.416.416 0 1 1 .59-.589l.416.417a.416.416 0 0 1-.295.71zM10 10.038a.416.416 0 0 1-.295-.122l-.416-.417a.416.416 0 1 1 .589-.589l.417.417a.416.416 0 0 1-.295.71zM13.75 6.705a.416.416 0 0 1-.295-.123l-.416-.416a.416.416 0 1 1 .589-.59l.417.417a.416.416 0 0 1-.295.712zM19.583 10.455a.417.417 0 0 1-.416-.417v-2.5a.417.417 0 1 1 .833 0v2.5c0 .23-.187.417-.417.417z"/>
        <path d="M20.833 9.205h-1.25a.417.417 0 1 1 0-.834h1.25a.417.417 0 1 1 0 .834zM4.99 11.02a.415.415 0 0 1-.391-.272 1.055 1.055 0 0 1-.003-.731.237.237 0 0 0-.032-.222c-.023-.03-.084-.12-.201-.099h-.03c-.468 0-.876-.295-1.021-.742a1.067 1.067 0 0 1 .414-1.217.238.238 0 0 0 .104-.2.24.24 0 0 0-.104-.198 1.067 1.067 0 0 1-.414-1.217 1.081 1.081 0 0 1 1.05-.742c.116.016.18-.068.202-.1a.237.237 0 0 0 .032-.221 1.067 1.067 0 0 1 .38-1.229 1.068 1.068 0 0 1 1.287.018c.09.07.185.05.221.038a.237.237 0 0 0 .156-.16c.136-.461.55-.771 1.03-.771.481 0 .895.31 1.03.77a.24.24 0 0 0 .378.123c.381-.293.898-.3 1.287-.018.381.277.536.758.39 1.203a.414.414 0 0 1-.08.178c-.417.538-.62 1.241-.572 1.98.012.2-.118.38-.312.43a2.495 2.495 0 0 0-1.874 2.417c0 .23-.187.417-.417.417H6.25c-.27 0-.615.163-1 .473a.418.418 0 0 1-.26.091zm-.62-2.157a1.073 1.073 0 0 1 1.067.957c.281-.133.55-.199.813-.199h.86a3.332 3.332 0 0 1 2.152-2.708c.013-.79.257-1.54.7-2.144a.228.228 0 0 0-.088-.265.229.229 0 0 0-.288.004A1.075 1.075 0 0 1 7.9 3.96a.23.23 0 0 0-.23-.172.23.23 0 0 0-.231.172 1.074 1.074 0 0 1-1.686.548.229.229 0 0 0-.288-.004.23.23 0 0 0-.085.275c.119.334.065.704-.143.991-.208.287-.546.44-.898.443-.16-.023-.22.114-.236.165a.229.229 0 0 0 .093.273 1.074 1.074 0 0 1 0 1.772.23.23 0 0 0-.093.273.23.23 0 0 0 .227.166h.04z"/>
        <path d="M7.083 7.538a.416.416 0 0 1-.294-.122l-.417-.417a.416.416 0 1 1 .59-.589l.416.417a.416.416 0 0 1-.295.71zM8.808 4.715a.392.392 0 0 1-.079-.008 1.069 1.069 0 0 1-.828-.747.214.214 0 0 0-.121-.147.265.265 0 0 0-.222.008A.417.417 0 0 1 7 3.258L8.565.225a.419.419 0 0 1 .562-.179l1.481.765a.417.417 0 0 1 .18.561L9.178 4.49a.418.418 0 0 1-.37.226zm-.75-1.687l.052.021c.265.115.463.326.565.6l1.18-2.288-.74-.382-1.058 2.049z"/>
    </g>
</svg>
