<svg xmlns="http://www.w3.org/2000/svg" width="27" height="26" viewBox="0 0 27 26">
    <g fill="none" fill-rule="evenodd" stroke="#FFF" stroke-linecap="round">
        <path d="M1.294 13.613h24.073H1.294zm20.004 11.142c0-1.43-3.417-1.896-7.631-1.896-4.215 0-7.631.465-7.631 1.896h15.262zM19.13 22.6a12.281 12.281 0 0 0 6.584-10.884H1.148c0 4.858 2.844 8.945 6.936 10.938L19.13 22.6zm.7-10.884l4.819-5.404-1.17-1.235-6.903 6.64h3.254zM8.084 20.472c.426.267.888.495 1.382.664l-1.382-.664zM4.36 16.188s.843 1.796 2.441 3.288L4.36 16.188zM6.622.295s-2.717 3.526 0 5.6c2.717 2.075 1.513 2.89.456 4.356M9.4.295s-2.717 3.526 0 5.6c2.717 2.075 1.512 2.89.456 4.356M12.178.295s-2.717 3.526 0 5.6c2.717 2.075 1.512 2.89.455 4.356"/>
    </g>
</svg>
