<svg xmlns="http://www.w3.org/2000/svg" width="20" height="22" viewBox="0 0 15 22">
    <g fill="#F99C32" fill-rule="nonzero">
        <path d="M5.23 3.72c-.35.309-4.033 3.053-4.033 3.053-.14.103-.28.377-.28.549v3.636c0 1.132 1.543 1.063 1.543-.034V8.282c0-.171.14-.446.28-.549l1.964-1.509c.14-.103.28-.068.28.137v4.597c0 .206.106.446.28.549l4.384 3.464c.14.103.316.343.386.549 0 0 1.192 3.293 1.683 4.734.491 1.44 2.42.857 1.964-.618-.28-.857-1.894-5.317-1.894-5.317a1.96 1.96 0 0 0-.385-.548L7.93 10.958V5.195c.035-.686-2.314-1.784-2.7-1.475z"/>
        <path d="M4.79 12.833S1.228 18.648.26 20.111c-.934 1.462.9 2.633 1.73 1.316.83-1.28 4.428-7.277 4.428-7.277L4.79 12.833zM8.25 10.14s1.299.897 2.215 1.57c.917.672 2.025-.449 1.108-1.154C10.656 9.852 8.25 8.25 8.25 8.25v1.89zM5.5 1.27c0 1.656 1.645 2.397 2.399 2.397.548 0 1.268-.07 1.268-1.516S8.79 0 7.145 0C6.63 0 5.5.141 5.5 1.27z"/>
    </g>
</svg>
