<?xml version="1.0" standalone="no"?>
<!DOCTYPE svg PUBLIC "-//W3C//DTD SVG 20010904//EN"
 "http://www.w3.org/TR/2001/REC-SVG-20010904/DTD/svg10.dtd">
<svg version="1.0" xmlns="http://www.w3.org/2000/svg"
 width="590.000000pt" height="590.000000pt" viewBox="0 0 590.000000 590.000000"
 preserveAspectRatio="xMidYMid meet">
<metadata>
Created by potrace 1.11, written by Peter Selinger 2001-2013
</metadata>
<g transform="translate(0.000000,590.000000) scale(0.100000,-0.100000)"
fill="#000000" stroke="none">
<path d="M2860 5724 c-110 -20 -187 -41 -255 -68 -75 -31 -1962 -1113 -2087
-1198 -170 -114 -313 -301 -388 -506 -61 -167 -61 -171 -57 -1033 3 -778 3
-785 25 -864 30 -104 118 -283 181 -366 61 -80 167 -181 241 -230 120 -80
2010 -1164 2075 -1191 96 -40 213 -67 320 -74 110 -7 254 19 379 70 75 30
1962 1113 2088 1197 217 147 382 401 432 669 23 121 24 1537 1 1657 -52 274
-211 521 -432 671 -114 77 -2019 1170 -2086 1196 -38 15 -103 36 -145 47 -75
19 -241 32 -292 23z m103 -1531 c7 -61 51 -190 90 -268 79 -159 235 -330 383
-420 44 -28 273 -160 507 -295 235 -135 426 -247 426 -250 1 -3 -203 -122
-452 -265 -248 -143 -483 -281 -522 -307 -83 -55 -215 -188 -275 -277 -61 -91
-115 -212 -141 -316 -12 -49 -24 -97 -27 -105 -2 -8 -10 14 -17 50 -19 96 -75
238 -131 331 -56 93 -177 227 -263 292 -32 24 -273 167 -535 318 -261 151
-476 276 -476 279 0 3 204 122 453 265 248 143 484 281 522 307 82 54 214 187
272 273 78 116 147 284 160 388 3 26 9 47 13 47 4 0 10 -21 13 -47z"/>
</g>
</svg>
