<svg version="1.1" id="Capa_1" xmlns="http://www.w3.org/2000/svg" xmlns:xlink="http://www.w3.org/1999/xlink" x="0px" y="0px"
     viewBox="0 0 406.198 406.198" style="enable-background:new 0 0 406.198 406.198;" xml:space="preserve">
<g>
	<path d="M365.56,280.75c24.192-13.229,40.638-38.918,40.638-68.38c0-23.678-10.635-44.907-27.364-59.202
		c-9.487-41.06-32.637-78.315-65.453-105.194C279.238,20.009,236.088,4.607,191.88,4.607C86.077,4.607,0,90.685,0,196.488
		s86.077,191.88,191.88,191.88c20.072,0,39.711-3.059,58.56-9.104v12.828c0,5.247,4.253,9.5,9.5,9.5h136.759
		c5.247,0,9.5-4.253,9.5-9.5V349.13C406.198,319.669,389.752,293.979,365.56,280.75z M387.198,212.371
		c0,32.467-26.413,58.88-58.88,58.88s-58.88-26.413-58.88-58.88c0-32.466,26.413-58.88,58.88-58.88S387.198,179.904,387.198,212.371
		z M259.651,312.433c-20.49,12.004-43.858,18.354-67.771,18.354c-74.053,0-134.3-60.247-134.3-134.3s60.247-134.3,134.3-134.3
		c27.535,0,53.996,8.272,76.522,23.922c18.618,12.934,33.477,30.115,43.52,50.133c-1.872,0.403-3.716,0.878-5.535,1.413
		c0.454-2.2,0.145-4.567-1.067-6.666c-2.623-4.544-8.432-6.1-12.978-3.477l-5.109,2.95c-4.544,2.624-6.101,8.434-3.478,12.977
		c0.756,1.31,1.787,2.354,2.967,3.139c-21.784,13.822-36.284,38.138-36.284,65.791c0,29.462,16.446,55.152,40.638,68.38
		C277.775,288.024,266.822,299.068,259.651,312.433z M191.88,369.367C96.554,369.367,19,291.814,19,196.488
		c0-95.326,77.554-172.88,172.88-172.88c39.831,0,78.705,13.874,109.462,39.066c24.631,20.175,43.221,46.827,53.685,76.537
		c-7.192-2.634-14.877-4.232-22.875-4.622c-11.384-25.802-29.566-47.866-52.908-64.083c-25.725-17.872-55.935-27.318-87.363-27.318
		c-84.53,0-153.3,68.77-153.3,153.3s68.77,153.3,153.3,153.3c20.52,0,40.692-4.109,59.39-11.965
		c-0.54,3.693-0.831,7.467-0.831,11.308v10.053C231.708,365.936,212.042,369.367,191.88,369.367z M387.198,382.591H269.439V349.13
		c0-32.466,26.413-58.88,58.879-58.88c32.467,0,58.88,26.413,58.88,58.88V382.591z"/>
    <path d="M201.377,169.44v-63.834c0-5.247-4.253-9.5-9.5-9.5s-9.5,4.253-9.5,9.5v63.834c-8.179,2.881-14.668,9.37-17.549,17.549
		h-25.881c-5.247,0-9.5,4.253-9.5,9.5s4.253,9.5,9.5,9.5h25.881c3.929,11.154,14.568,19.173,27.049,19.173
		c15.811,0,28.674-12.863,28.674-28.673C220.551,184.007,212.531,173.369,201.377,169.44z M191.877,206.162
		c-5.334,0-9.674-4.339-9.674-9.673s4.34-9.673,9.674-9.673s9.674,4.339,9.674,9.673S197.211,206.162,191.877,206.162z"/>
    <path d="M191.875,302.583c-5.247,0-9.5,4.253-9.5,9.5v5.9c0,5.247,4.253,9.5,9.5,9.5s9.5-4.253,9.5-9.5v-5.9
		C201.375,306.836,197.122,302.583,191.875,302.583z"/>
    <path d="M191.875,90.393c5.247,0,9.5-4.253,9.5-9.5v-5.9c0-5.247-4.253-9.5-9.5-9.5s-9.5,4.253-9.5,9.5v5.9
		C182.375,86.139,186.628,90.393,191.875,90.393z"/>
    <path d="M257.9,291.845c-2.623-4.543-8.433-6.101-12.978-3.477c-4.544,2.623-6.101,8.434-3.478,12.977l2.95,5.11
		c1.76,3.048,4.953,4.751,8.236,4.751c1.611,0,3.245-0.411,4.741-1.275c4.544-2.623,6.101-8.434,3.478-12.977L257.9,291.845z"/>
    <path d="M125.851,101.13c1.76,3.048,4.953,4.751,8.236,4.751c1.611,0,3.245-0.411,4.741-1.275
		c4.544-2.623,6.101-8.434,3.478-12.977l-2.95-5.11c-2.623-4.544-8.432-6.1-12.978-3.477c-4.544,2.623-6.101,8.434-3.478,12.977
		L125.851,101.13z"/>
    <path d="M96.517,130.463l-5.109-2.95c-4.543-2.623-10.354-1.067-12.978,3.477c-2.623,4.544-1.066,10.354,3.478,12.977l5.109,2.95
		c1.496,0.864,3.129,1.274,4.741,1.274c3.283,0,6.477-1.704,8.236-4.752C102.617,138.896,101.061,133.086,96.517,130.463z"/>
    <path d="M85.78,196.488c0-5.247-4.253-9.5-9.5-9.5h-5.9c-5.247,0-9.5,4.253-9.5,9.5s4.253,9.5,9.5,9.5h5.9
		C81.527,205.988,85.78,201.734,85.78,196.488z"/>
    <path d="M87.017,246.058l-5.109,2.95c-4.544,2.624-6.101,8.434-3.478,12.977c1.76,3.048,4.953,4.752,8.236,4.752
		c1.611,0,3.245-0.411,4.741-1.274l5.109-2.95c4.544-2.624,6.101-8.434,3.478-12.977S91.562,243.435,87.017,246.058z"/>
    <path d="M244.923,104.606c1.496,0.864,3.129,1.275,4.741,1.275c3.283,0,6.477-1.704,8.236-4.751l2.95-5.11
		c2.623-4.544,1.066-10.354-3.478-12.977c-4.544-2.624-10.354-1.067-12.978,3.477l-2.95,5.11
		C238.822,96.173,240.379,101.983,244.923,104.606z"/>
    <path d="M138.828,288.369c-4.543-2.624-10.354-1.068-12.978,3.477l-2.95,5.11c-2.623,4.544-1.066,10.354,3.478,12.977
		c1.496,0.864,3.129,1.275,4.741,1.275c3.283,0,6.477-1.704,8.236-4.751l2.95-5.11C144.929,296.802,143.372,290.992,138.828,288.369
		z"/>
</g>
</svg>