<svg id="Layer_5" enable-background="new 0 0 64 64" height="46" viewBox="0 0 64 64" width="46" xmlns="http://www.w3.org/2000/svg">
  <g>
  <g>
    <g>
      <path d="m53 59h-38c-1.103 0-2-.897-2-2v-24c0-1.103.897-2 2-2h38c1.103 0 2 .897 2 2v24c0 1.103-.897 2-2 2z" fill="#f0bc5e"/>
    </g>
  </g>
    <g>
      <g>
        <path d="m52 23c-6.065 0-11-4.935-11-11s4.935-11 11-11 11 4.935 11 11-4.935 11-11 11z" fill="#f0bc5e"/>
      </g>
    </g>
  </g>
  <g>
    <path d="m51 15c-.551 0-1-.449-1-1h-2c0 1.654 1.346 3 3 3v2h2v-2h3v-3c0-1.654-1.346-3-3-3h-2c-.551 0-1-.449-1-1v-1h3c.551 0 1 .449 1 1h2c0-1.654-1.346-3-3-3v-2h-2v2h-3v3c0 1.654 1.346 3 3 3h2c.551 0 1 .449 1 1v1z"/>
    <path d="m58 27h-22v-13c0-.551.449-1 1-1h4.051c-.03-.33-.051-.662-.051-1s.021-.67.051-1h-4.051c-1.654 0-3 1.346-3 3v13h-4v-1c0-1.654-1.346-3-3-3h-11c-.551 0-1-.449-1-1v-1h8v-3c0-3.768-2.33-6.998-5.623-8.337.991-.914 1.623-2.212 1.623-3.663 0-2.757-2.243-5-5-5s-5 2.243-5 5c0 1.451.632 2.749 1.623 3.663-3.293 1.339-5.623 4.569-5.623 8.337v3h8v1c0 1.654 1.346 3 3 3h11c.551 0 1 .449 1 1v1h-22c-2.757 0-5 2.243-5 5v26c0 2.757 2.243 5 5 5h52c2.757 0 5-2.243 5-5v-26c0-2.757-2.243-5-5-5zm-44-24c1.654 0 3 1.346 3 3s-1.346 3-3 3-3-1.346-3-3 1.346-3 3-3zm-7 16v-1c0-3.86 3.14-7 7-7s7 3.14 7 7v1zm54 39c0 1.654-1.346 3-3 3h-52c-1.654 0-3-1.346-3-3v-26c0-1.654 1.346-3 3-3h52c1.654 0 3 1.346 3 3z"/>
    <path d="m9 39h-2c-1.103 0-2 .897-2 2v8c0 1.103.897 2 2 2h2c1.103 0 2-.897 2-2v-8c0-1.103-.897-2-2-2zm-2 10v-8h2l.001 8z"/>
    <path d="m57 39h2v2h-2z"/>
    <path d="m57 43h2v8h-2z"/>
    <path d="m38.553 35.105c-2.478 1.24-5.253 1.895-8.025 1.895h-1.528c-2.757 0-5 2.243-5 5 0 2.414 1.721 4.434 4 4.899v5.687c0 1.331 1.083 2.414 2.414 2.414h3.172c1.331 0 2.414-1.083 2.414-2.414 0-.645-.251-1.251-.707-1.707l-1.172-1.172c-.077-.077-.121-.184-.121-.293v-2.065c1.578.312 3.116.827 4.553 1.546l.211.105h5.236v-14h-5.236zm-4.967 17.895h-3.172c-.228 0-.414-.186-.414-.414v-5.586h.528c.491 0 .982.028 1.472.069v2.345c0 .645.251 1.251.707 1.707l1.172 1.172c.077.077.121.184.121.293 0 .228-.186.414-.414.414zm4.414-6.541c-2.367-.955-4.92-1.459-7.472-1.459h-1.528c-1.654 0-3-1.346-3-3s1.346-3 3-3h1.528c2.552 0 5.105-.504 7.472-1.459zm2-9.459h2v10h-2z"/>
    <path d="m17 43h2v2h-2z"/>
    <path d="m17 35h2v2h-2z"/>
    <path d="m17 39h2v2h-2z"/>
    <path d="m49 49h2v2h-2z"/>
    <path d="m49 45h2v2h-2z"/>
    <path d="m49 53h2v2h-2z"/>
  </g>
</svg>