<svg xmlns="http://www.w3.org/2000/svg" width="24" height="24" viewBox="0 0 24 24">
    <g fill="#FFF" fill-rule="nonzero">
        <path d="M12.198 23.42a11.738 11.738 0 0 0 7.806-2.985v2.984h2.927v-7.033a9.44 9.44 0 0 0 .063-.147l.913-.912V3.415C23.907 1.836 22.628 0 20.98 0h-.976v2.984a11.71 11.71 0 1 0-7.806 20.435zM20.98.975c1.05 0 1.951 1.342 1.951 2.44v11.507l-.975.976v6.544h-.976V.976zm-8.782 0a10.76 10.76 0 0 1 7.806 3.366v14.735A10.734 10.734 0 1 1 12.198.976z"/>
        <path d="M9.221 11.248a2.85 2.85 0 1 0-.005 5.7 2.85 2.85 0 0 0 .005-5.7zm0 4.724a1.875 1.875 0 1 1-.005-3.749 1.875 1.875 0 0 1 .005 3.75zM14.134 13.543a.488.488 0 0 0-.947.235 3.303 3.303 0 0 1-.847 2.954.488.488 0 1 0 .69.69 4.294 4.294 0 0 0 1.104-3.88z"/>
        <path d="M18.397 4.534l-.976-.976a1.86 1.86 0 0 0-3.064.66 7.764 7.764 0 0 0-9.907 6.58 5.795 5.795 0 0 0 2.424 8.609 4.684 4.684 0 0 0 3.647 1.745c.455.006.908-.06 1.343-.197a5.408 5.408 0 0 0 2.558-1.775 7.782 7.782 0 0 0 4.05-12.1c.649-.736.616-1.849-.075-2.546zm-2.296-.547a.89.89 0 0 1 .63.261l.976.976a.886.886 0 0 1-.126 1.366l-.029.018a.89.89 0 0 1-.564.13h-.02a.92.92 0 0 1-.265-.074l-.025-.013a.878.878 0 0 1-.232-.163l-.976-.976a.884.884 0 0 1-.259-.65v-.007a.887.887 0 0 1 .89-.868zm-.345 4.45a.893.893 0 0 1-1.262 0l-.976-.976A.892.892 0 0 1 14.78 6.2l.976.976a.893.893 0 0 1 0 1.261zM11.54 20.034a3.651 3.651 0 0 1-3.991-1.34l-.077-.093-.112-.05a4.824 4.824 0 0 1-2.15-7.141l.04-.057c.027-.037.055-.071.082-.107.1-.136.206-.266.32-.39l.043-.05a4.869 4.869 0 0 1 1.33-1.005c.158-.08.321-.152.488-.215l.066-.024c.146-.052.292-.097.443-.136l.101-.026a4.61 4.61 0 0 1 .432-.079c.039-.005.076-.013.115-.017a4.81 4.81 0 0 1 4.616 2.2l.067.103.108.06c.413.23 2.414 1.537 1.208 4.75l-.023.089a5.114 5.114 0 0 1-.91 1.963l-.098.132a4.503 4.503 0 0 1-2.098 1.433zm3.699-2.216c.156-.353.275-.721.357-1.099.054-.146.093-.285.136-.426.025-.082.058-.168.08-.248.018-.07.028-.136.044-.204.735-3.118-1.256-4.614-1.814-4.962A5.78 5.78 0 0 0 8.69 8.32c-.073.007-.143.018-.215.027a6.059 6.059 0 0 0-.564.1l-.202.053c-.106.028-.211.057-.314.092l-.075.027a5.78 5.78 0 0 0-1.136.541c-.025.016-.051.03-.076.047a5.75 5.75 0 0 0-.306.21c-.018.014-.037.025-.056.038a6.802 6.802 0 0 1 7.898-4.415 1.848 1.848 0 0 0-.816.469 1.87 1.87 0 0 0 0 2.641l.976.976a1.86 1.86 0 0 0 3.18-1.408h.105a1.863 1.863 0 0 0 .581-.096 6.82 6.82 0 0 1-2.43 10.195z"/>
    </g>
</svg>
