<svg xmlns="http://www.w3.org/2000/svg" width="25" height="20" viewBox="0 0 25 20">
    <path fill="#FFF" fill-rule="nonzero" d="M24.984 9.698a1.909 1.909 0 0 0-.849-1.591c.193-.4.293-.837.294-1.281v-.971a2.953 2.953 0 0 0-.261-1.224 1.917 1.917 0 0 0-1.106-3.487 3.671 3.671 0 0 1-1.786-.408 7.987 7.987 0 0 0-6.69 0c-1.131.538 2.317.538 1.185 0-1.04-.506-.753-.505-1.795 0a3.671 3.671 0 0 1-1.786.408A3.671 3.671 0 0 1 10.4.736 7.293 7.293 0 0 0 7.053.002a7.29 7.29 0 0 0-3.34.734 3.671 3.671 0 0 1-1.791.408A1.917 1.917 0 0 0 .818 4.63a2.953 2.953 0 0 0-.261 1.224v.959c0 .443.1.881.293 1.28a1.917 1.917 0 0 0 0 3.174c-.182.39-.277.817-.277 1.248v2.578c.004.423.098.84.277 1.224a1.921 1.921 0 0 0 1.09 3.503 7.342 7.342 0 0 0 3.344-.734 3.671 3.671 0 0 1 1.787-.408 3.671 3.671 0 0 1 1.79.408 7.342 7.342 0 0 0 3.345.734c1.157.023-.55.023.606 0a7.293 7.293 0 0 0 3.345-.734 4.165 4.165 0 0 1 3.577 0 7.305 7.305 0 0 0 3.345.734 1.921 1.921 0 0 0 1.089-3.503c.179-.384.273-.801.277-1.224v-2.566c0-.431-.095-.857-.277-1.248.515-.362.82-.953.816-1.582zm-1.656 1.072a1.15 1.15 0 0 1-.266.033h-.326a6.318 6.318 0 0 1-2.186-.449 10.37 10.37 0 0 1-.502-.212c-.155-.07-.306-.134-.46-.196a3.66 3.66 0 0 0-.409-.134 5.547 5.547 0 0 0-2.5 0c-.142.04-.277.085-.408.134l-.449.196c-.159.07-.322.143-.497.212-.8.318-1.656.47-2.517.449-.862.024-.399.152-.398.367v6.012a.755.755 0 0 1 0 .094.465.465 0 0 1-.914 0 .38.38 0 0 1 0-.098v-5.151a1.293 1.293 0 0 0-2.582 0v.408a.477.477 0 0 1-.95 0v-.38a1.293 1.293 0 0 0-2.582 0v1.913a.477.477 0 0 1-.95 0v-3.026a.408.408 0 0 0-.523-.408c-.53.15-1.079.233-1.631.244h-.326a1.15 1.15 0 0 1-.294-.016 1.105 1.105 0 0 1-.363-1.982 1.146 1.146 0 0 1 .64-.196h.355a4.344 4.344 0 0 0 1.762-.465 6.547 6.547 0 0 1 3.015-.66 6.526 6.526 0 0 1 3.014.66 4.41 4.41 0 0 0 2.121.473 4.41 4.41 0 0 0 2.121-.473c.933-.456.473.15.612.584.147.413.123.49.553.709.137.072.286.118.44.135.1.019.203.016.302-.009.154-.016.304-.062.44-.134.43-.217.7-.658.698-1.138v-.791h.563a6.526 6.526 0 0 1 3.014.66 4.364 4.364 0 0 0 1.763.465h.354c.079 0 .157.008.233.025a1.101 1.101 0 0 1 .432 1.974 1.704 1.704 0 0 1-.4.171zm.285 1.758v2.578a2.17 2.17 0 0 1-.22.934 2.21 2.21 0 0 0-.33-.032c-.621.02-1.237-.12-1.787-.408a8.027 8.027 0 0 0-6.69 0c-1.131.538 2.317.538 1.185 0-1.042-.503-.753-.5-1.795.004a5.347 5.347 0 0 1-.75.29v-4.316c1.097-.298.956.09 2.914-.673 1.959-.763 2.446-.538 3.578 0a7.318 7.318 0 0 0 3.344.73 1.7 1.7 0 0 0 .327-.033c.143.288.22.605.224.926zm.232 6.185c-.207.208-.489.325-.783.325a6.571 6.571 0 0 1-3.014-.665 6.583 6.583 0 0 0-.71-.269 5.274 5.274 0 0 0-2.818 0 7.342 7.342 0 0 0-.71.282c-.937.46-1.97.687-3.014.665-1.042.021.437.01-.606-.013a6.526 6.526 0 0 1-3.027-.665 6.934 6.934 0 0 0-.697-.269 4.487 4.487 0 0 0-1.412-.191 4.487 4.487 0 0 0-1.407.191c-.241.08-.478.175-.71.282-.937.46-1.97.687-3.014.665a1.105 1.105 0 0 1-.653-2c.118-.08.25-.138.388-.17.087-.023.176-.036.265-.037h.298a4.393 4.393 0 0 0 1.823-.465 6.526 6.526 0 0 1 3.01-.66 6.526 6.526 0 0 1 3.015.66c.2.09.383.167.575.236v.592a1.146 1.146 0 0 0 .094.506 1.28 1.28 0 0 0 1.187.787c.344-.005.671-.147.91-.396a1.224 1.224 0 0 0 .37-.91v-.464c.376-.084.74-.211 1.085-.38.943-.46 4.742-.88 6.655 0 .563.285 1.181.443 1.811.465h.302c.09.002.179.014.265.037.492.123.837.562.84 1.069a1.09 1.09 0 0 1-.318.792zM1.372 15.106v-2.578c.001-.33.078-.655.225-.95a1.7 1.7 0 0 0 .326.033 8.158 8.158 0 0 0 1.656-.155v2.484a1.289 1.289 0 0 0 1.097 1.28c-.331.111-.657.239-.975.384a3.634 3.634 0 0 1-1.79.408 2.21 2.21 0 0 0-.33.032 2.113 2.113 0 0 1-.209-.938zm4.25-.114c.336-.243.536-.63.54-1.044v-1.913a.477.477 0 0 1 .95 0v.383a1.293 1.293 0 0 0 2.581 0v-.408a.477.477 0 0 1 .95 0v3.671l-.244-.106a7.342 7.342 0 0 0-3.345-.73 8.04 8.04 0 0 0-1.431.147zm-4.25-9.137c0-.31.069-.617.2-.897.116.024.233.037.351.036a7.342 7.342 0 0 0 3.345-.73 3.606 3.606 0 0 1 1.786-.408 3.61 3.61 0 0 1 1.791.408 7.342 7.342 0 0 0 3.345.73 7.342 7.342 0 0 0 3.344-.73c.55-.287-1.87-.287-1.317 0 .694.335.883 1.342.57 3.019l-.2.09c-1.132.538 2.316.538 1.184 0-1.041-.505-.753-.504-1.795 0a3.606 3.606 0 0 1-1.786.407 3.634 3.634 0 0 1-1.79-.407 7.301 7.301 0 0 0-3.346-.73 7.297 7.297 0 0 0-3.34.73 3.634 3.634 0 0 1-1.791.407 1.897 1.897 0 0 0-.306.033 2.166 2.166 0 0 1-.245-.987v-.971zm-.554-2.77c0-.61.495-1.105 1.105-1.105a4.426 4.426 0 0 0 2.117-.473A6.526 6.526 0 0 1 7.054.842a6.526 6.526 0 0 1 3.015.665c.657.33 1.386.493 2.12.473a4.458 4.458 0 0 0 2.122-.473c.936-.46 4.723-.887 6.634 0 .656.33 1.383.493 2.117.473a1.101 1.101 0 0 1 .673 1.974c-.11.089-.238.154-.375.192a1.195 1.195 0 0 1-.298.045h-.265a6.375 6.375 0 0 1-2.153-.408.408.408 0 0 0-.555.38v3.171a.477.477 0 1 1-.95 0v.43c.026-.478.07-2.264-.624-2.18-.694.085-.924-.247-1.335 0-.41.248-.65.702-.623 1.18V8.27a.477.477 0 0 1-.476.433c-.246 0-.452-.363-.475-.608V4.223a.408.408 0 0 0-.542-.383c-.728.25.7.209-.13-.143l-.138-.004a6.36 6.36 0 0 1-2.627.498 6.294 6.294 0 0 1-2.598-.498l-.408-.163c-.204-.09-.408-.171-.591-.245a4.328 4.328 0 0 0-1.53-.228 4.316 4.316 0 0 0-1.525.228c-.2.074-.388.155-.592.245l-.387.163a6.229 6.229 0 0 1-2.362.49H1.91c-.101-.003-.201-.018-.298-.045a1.093 1.093 0 0 1-.795-1.052zm22.795 3.729c-.003.342-.087.679-.245.983-.1-.02-.203-.03-.306-.033-.62.02-1.236-.12-1.786-.408a7.75 7.75 0 0 0-1.632-.563c.704-.01 1.269 1.034 1.269.33V4.725a7.51 7.51 0 0 0 2.158.281c.117 0 .235-.011.35-.036.127.278.193.58.192.885v.959zm-5.678-.172h-.563v.118a.477.477 0 1 1 .95 0v.38c.002.536.335-.604.837-.416a9.006 9.006 0 0 0-1.224-.082z"/>
</svg>
