<svg xmlns="http://www.w3.org/2000/svg" width="24" height="24" viewBox="0 0 24 24">
    <g fill="#FFF" fill-rule="nonzero">
        <path d="M12.01.462C5.646.462.47 5.638.47 12s5.176 11.538 11.538 11.538S23.547 18.362 23.547 12 18.371.462 12.01.462zm0 22.108C6.18 22.57 1.438 17.83 1.438 12c0-5.829 4.742-10.57 10.57-10.57 5.829 0 10.57 4.741 10.57 10.57 0 5.828-4.741 10.57-10.57 10.57z"/>
        <path d="M15.32 11.863a3.474 3.474 0 0 0-3.47-3.47 3.474 3.474 0 0 0-3.47 3.47 3.474 3.474 0 0 0 3.47 3.47 3.474 3.474 0 0 0 3.47-3.47zm-3.47 2.613a2.616 2.616 0 0 1-2.613-2.613A2.616 2.616 0 0 1 11.85 9.25a2.616 2.616 0 0 1 2.613 2.613 2.616 2.616 0 0 1-2.613 2.613zM12.269 5.986l1.023.266a.287.287 0 0 0 .349-.205.286.286 0 0 0-.205-.348l-1.023-.266a.285.285 0 1 0-.144.553zM8.605 6.82a.286.286 0 1 0-.456-.344l-.483.638a.286.286 0 0 0 .456.345l.483-.638zM10.71 7.55a.284.284 0 0 0 .401-.039.286.286 0 0 0-.037-.402l-.46-.38a.285.285 0 1 0-.365.44l.46.38zM15.4 6.503a.285.285 0 0 0 .066-.008l.808-.188a.286.286 0 1 0-.13-.557l-.807.188a.286.286 0 0 0 .064.565zM18.072 9.816l-.641-.31a.286.286 0 0 0-.249.514l.641.31a.286.286 0 0 0 .249-.514zM13.513 8.317a.285.285 0 0 0 .381-.134l.35-.73a.286.286 0 1 0-.515-.247l-.35.73a.285.285 0 0 0 .134.381zM14.613 16.483a.285.285 0 1 0-.39.417l.523.49a.284.284 0 0 0 .404-.012.285.285 0 0 0-.013-.404l-.524-.49zM17.56 12.128a.286.286 0 0 0-.363-.176l-.72.25a.286.286 0 0 0 .186.54l.72-.25a.286.286 0 0 0 .177-.364zM10.652 17.708l-.659.272a.286.286 0 0 0 .218.528l.66-.271a.286.286 0 0 0-.219-.529zM15.587 14.484l-.637.335a.286.286 0 1 0 .266.506l.637-.334a.286.286 0 1 0-.266-.507zM17.697 16.013l-.54.387a.285.285 0 1 0 .333.464l.54-.387a.285.285 0 1 0-.333-.464zM16.274 8.05a.285.285 0 0 0-.378.142l-.463 1.023a.286.286 0 1 0 .52.235l.463-1.023a.286.286 0 0 0-.142-.378zM6.411 10a.285.285 0 0 0 .146-.533l-.87-.513a.286.286 0 0 0-.29.493l.869.513c.046.027.096.04.145.04zM8.993 8.833a.286.286 0 0 0-.394-.087l-.56.357a.286.286 0 1 0 .307.482l.56-.358a.286.286 0 0 0 .087-.394zM11.98 16.55l-.73-.256a.285.285 0 1 0-.189.54l.731.255a.286.286 0 1 0 .189-.54zM6.743 14.908l-.683.355a.286.286 0 0 0 .264.507l.682-.354a.286.286 0 0 0-.263-.508zM7.006 11.581a.285.285 0 0 0-.385.122l-.533 1.023a.286.286 0 0 0 .507.264l.532-1.023a.286.286 0 0 0-.121-.386zM8.716 15.227a.286.286 0 0 0-.286.287l.001.735a.286.286 0 1 0 .571-.001v-.735a.286.286 0 0 0-.286-.286zM17.845 13.963l-.588.067a.286.286 0 1 0 .064.568l.589-.067a.286.286 0 0 0 .251-.316.282.282 0 0 0-.316-.252z"/>
        <path d="M20.899 11.185l-.016-.202a.37.37 0 0 0-.003-.031l-.016-.101a.586.586 0 0 0-.006-.032l-.023-.102-.008-.03-.154-.426a.385.385 0 0 0-.012-.028l-.216-.397a.347.347 0 0 0-.016-.025l-.132-.192-.814-.97-.214-.283-.169-.312-.14-.333-.418-1.396-.225-.61a.47.47 0 0 0-.018-.04l-.201-.37a.428.428 0 0 0-.026-.041l-.215-.284-.336-.328a.45.45 0 0 0-.034-.027l-.28-.195a.492.492 0 0 0-.037-.021l-.301-.146a.507.507 0 0 0-.044-.018l-.318-.094a.381.381 0 0 0-.04-.008l-.201-.032a.413.413 0 0 0-.033-.003l-.202-.016a.413.413 0 0 0-.033 0h-.234l-.833.078-.21.016-.373.014-.379-.021-.29-.06a.42.42 0 0 0-.084-.042l-.192-.069-.948-.405-.407-.165-.41-.14a.422.422 0 0 0-.05-.012l-.41-.079a.414.414 0 0 0-.049-.006l-.442-.025h-.032l-.213.008a.329.329 0 0 0-.033.003l-.205.023a.502.502 0 0 0-.03.005l-.436.09a.683.683 0 0 0-.034.01l-.198.063a.438.438 0 0 0-.042.016l-.216.095-.401.227a.438.438 0 0 0-.038.027l-.158.126a.429.429 0 0 0-.027.024l-.15.142a.384.384 0 0 0-.024.025l-.284.315-.019.022-.154.197a.418.418 0 0 0-.145.101l-.417.448-.422.4-.138.106-.297.201-.907.45-.396.203-.369.238a.415.415 0 0 0-.026.019l-.26.219a.563.563 0 0 0-.033.032l-.21.233a.462.462 0 0 0-.028.035l-.253.368a.465.465 0 0 0-.022.036l-.15.294a.401.401 0 0 0-.017.038l-.144.44a.46.46 0 0 0-.012.053l-.033.171a.433.433 0 0 0-.01.063l-.015.203a.428.428 0 0 0-.001.033l.008.327c0 .011 0 .022.002.033l.062.448.238 1.007.062.535-.02.346-.377 1.59-.077.41a.638.638 0 0 0-.005.034l-.04.426a.42.42 0 0 0-.002.033v.21c0 .01 0 .022.002.033l.015.202.004.033.03.201.007.032.047.202.008.03.03.101.01.028.083.206a.36.36 0 0 0 .012.026l.27.492c.01.018.023.036.037.053l.28.337a.428.428 0 0 0 .039.04l.116.116c.02.021.042.041.065.058l.13.106c.018.016.037.03.057.042l.171.112a.509.509 0 0 0 .027.017l.179.1a.43.43 0 0 0 .032.017l.387.174.028.011 1.198.381.348.135.307.16.125.089.245.232.902 1.134.28.32a.475.475 0 0 0 .024.025l.296.28.035.03.164.124a.49.49 0 0 0 .029.02l.19.122.4.207a.433.433 0 0 0 .026.012l.194.078.03.01.194.062.037.01.238.052.43.057a.43.43 0 0 0 .048.003l.428-.008.03-.003.21-.023a.475.475 0 0 0 .035-.005l.202-.04a.567.567 0 0 0 .03-.006l.203-.055a.354.354 0 0 0 .033-.01l.403-.153a.459.459 0 0 0 .032-.015l.207-.103 1.065-.681.314-.175.155-.065.499-.126 1.413-.105.03-.003.432-.074a.411.411 0 0 0 .045-.011l.419-.137a.478.478 0 0 0 .038-.015l.186-.085.026-.013.187-.101a.446.446 0 0 0 .037-.023l.353-.249a.364.364 0 0 0 .035-.028l.156-.14a.408.408 0 0 0 .031-.032l.156-.174.196-.264a.307.307 0 0 0 .019-.03l.159-.278a.468.468 0 0 0 .016-.031l.086-.187a.49.49 0 0 0 .013-.033l.07-.195a.354.354 0 0 0 .01-.034l.059-.216.09-.432a.392.392 0 0 0 .004-.032l.024-.218a.338.338 0 0 0 .002-.03l.016-.428v-.03l-.04-.647-.015-.404.005-.15.088-.363.844-1.214a.35.35 0 0 0 .016-.024l.206-.357a.493.493 0 0 0 .025-.052l.114-.281a.398.398 0 0 0 .014-.04l.062-.202.008-.03.023-.1a.307.307 0 0 0 .007-.033l.03-.201a.482.482 0 0 0 .004-.035l.008-.109.001-.03v-.102a.27.27 0 0 0 0-.034zm-.888.365l-.168.487-.177.306-.607.816a.477.477 0 0 0-.022.031l-.118.186-.161.297a.423.423 0 0 0-.023.055l-.062.186a.44.44 0 0 0-.01.033l-.023.094a.333.333 0 0 0-.008.037l-.03.19a.424.424 0 0 0-.005.037l-.007.101-.002.033.047.965.008.202-.015.397-.052.362-.093.373-.058.16-.07.155-.135.236-.262.325-.417.318-.31.155-.35.114-.355.06-.816.054-.633.056-.031.005-.417.09a.476.476 0 0 0-.034.01l-.188.063a.49.49 0 0 0-.028.01l-.187.078a.46.46 0 0 0-.034.016l-.2.104-.707.461-.335.212-.33.176-.342.13-.17.045-.349.053-.357.007-.167-.018-.366-.068-.162-.052-.323-.141-.316-.189-.13-.1-.267-.252-1.032-1.287-.287-.311a.375.375 0 0 0-.024-.024l-.354-.277a.45.45 0 0 0-.047-.03l-.371-.194a.768.768 0 0 0-.027-.012l-.206-.085-1.016-.326-.363-.12-.345-.156-.238-.143-.107-.081a.522.522 0 0 0-.033-.028l-.09-.08a.408.408 0 0 0-.032-.032l-.284-.323-.22-.401-.084-.228-.08-.512.014-.349.091-.567.208-.808.108-.435.072-.41a.368.368 0 0 0 .004-.035l.025-.421-.001-.05-.017-.218-.057-.42a.285.285 0 0 0-.006-.032l-.236-.987-.05-.373-.007-.262.028-.223a.587.587 0 0 0 .006-.031l.061-.241.182-.402.204-.296.18-.201.486-.35 1.125-.552.388-.235.338-.249a.653.653 0 0 0 .027-.022l.163-.148.628-.647a.423.423 0 0 0 .2-.138l.251-.32.263-.293.125-.118.126-.101.463-.24.159-.051.368-.076.355-.027.37.02.36.07.342.116.963.418.288.11a.425.425 0 0 0 .222.131l.405.093c.01.002.02.005.031.006l.202.031.032.004.22.017.436.008c.01 0 .02 0 .031-.002l.833-.077.404-.03.34.013.31.066.308.139.318.247.229.268.213.371.065.16.49 1.603.236.594.013.027.201.371a.528.528 0 0 0 .025.038l.13.182.539.634.259.31.225.31.175.322.116.322.04.31-.03.315z"/>
    </g>
</svg>
